<svg width="20" height="22" viewBox="0 0 20 22" fill="none" xmlns="http://www.w3.org/2000/svg">
<path d="M3.74879 20.8357C3.80689 20.8943 3.87601 20.9408 3.95217 20.9725C4.02834 21.0043 4.11003 21.0206 4.19254 21.0206C4.27504 21.0206 4.35673 21.0043 4.4329 20.9725C4.50906 20.9408 4.57818 20.8943 4.63628 20.8357L8.19254 17.2795C8.29176 17.1601 8.343 17.008 8.33627 16.8529C8.32955 16.6978 8.26534 16.5508 8.15615 16.4404C8.04696 16.3301 7.90061 16.2643 7.74559 16.2559C7.59057 16.2476 7.43798 16.2972 7.31754 16.3951L4.81754 18.8951V1.60449C4.81754 1.43873 4.75169 1.27976 4.63448 1.16255C4.51727 1.04534 4.3583 0.979492 4.19254 0.979492C4.02677 0.979492 3.8678 1.04534 3.75059 1.16255C3.63338 1.27976 3.56754 1.43873 3.56754 1.60449V18.8857L1.06754 16.3857C0.95026 16.2685 0.7912 16.2026 0.625347 16.2026C0.459495 16.2026 0.300436 16.2685 0.18316 16.3857C0.0658849 16.503 1.2357e-09 16.6621 0 16.8279C-1.2357e-09 16.9938 0.0658849 17.1528 0.18316 17.2701L3.74879 20.8357Z" fill="white"/>
<path d="M8 1.62949C8 1.27051 8.29101 0.979492 8.65 0.979492H19.35C19.709 0.979492 20 1.27051 20 1.62949C20 1.98848 19.709 2.27949 19.35 2.27949H8.65C8.29101 2.27949 8 1.98848 8 1.62949Z" fill="white"/>
<path d="M8 5.62949C8 5.27051 8.29101 4.97949 8.65 4.97949H16.35C16.709 4.97949 17 5.27051 17 5.62949C17 5.98848 16.709 6.27949 16.35 6.27949H8.65C8.29101 6.27949 8 5.98848 8 5.62949Z" fill="white"/>
<path d="M8 9.62949C8 9.27051 8.29101 8.97949 8.65 8.97949H14.35C14.709 8.97949 15 9.27051 15 9.62949C15 9.98848 14.709 10.2795 14.35 10.2795H8.65C8.29101 10.2795 8 9.98848 8 9.62949Z" fill="white"/>
<path d="M8 13.6295C8 13.2705 8.29101 12.9795 8.65 12.9795H12.35C12.709 12.9795 13 13.2705 13 13.6295C13 13.9885 12.709 14.2795 12.35 14.2795H8.65C8.29101 14.2795 8 13.9885 8 13.6295Z" fill="white"/>
</svg>
