<svg width="80" height="81" viewBox="0 0 80 81" fill="none" xmlns="http://www.w3.org/2000/svg">
<g filter="url(#filter0_i_1345_8179)">
<rect y="0.75" width="80" height="80" rx="8" fill="#F9FBFE"/>
</g>
<g clip-path="url(#clip0_1345_8179)">
<path d="M28.0229 30.3364C27.5701 30.3364 27.2026 30.7039 27.2026 31.1567C27.2026 31.6096 27.5701 31.9771 28.0229 31.9771C28.4758 31.9771 28.8433 31.6096 28.8433 31.1567C28.8433 30.7039 28.4758 30.3364 28.0229 30.3364Z" fill="#0080FC"/>
<path d="M57.6306 37.3521L56.4437 34.9782C56.024 34.1388 55.1806 33.6175 54.2425 33.6175H47.3817V27.8756C47.3817 26.5187 46.2778 25.4147 44.9208 25.4147H21.4609C20.1039 25.4147 19 26.5186 19 27.8756V49.2028C19 50.5597 20.1039 51.6637 21.4609 51.6637H23.9217C23.9217 52.9232 24.3979 54.0733 25.1789 54.9447H19.8203C19.3673 54.9447 19 55.3121 19 55.7651C19 56.218 19.3673 56.5854 19.8203 56.5854H60.178C60.6311 56.5854 60.9984 56.218 60.9984 55.7651C60.9984 55.3121 60.6311 54.9447 60.178 54.9447H58.1005C58.8816 54.0732 59.3577 52.9232 59.3577 51.6637C59.3577 51.6169 59.3555 51.5704 59.3542 51.5237C60.3108 51.1861 60.9983 50.2735 60.9983 49.2028V44.6683C60.9983 43.7111 61.1879 44.6047 57.6306 37.3521ZM56.3899 38.5391L58.8508 43.4609H50.6628V38.5391H56.3899ZM20.6405 45.1014H22.2811V46.7419H20.6405V45.1014ZM28.8433 54.9447C27.0341 54.9447 25.5623 53.4728 25.5623 51.6637C25.5623 51.4402 25.5844 51.2203 25.6287 51.0064C25.9372 49.4861 27.2892 48.3825 28.8433 48.3825C30.3975 48.3825 31.7495 49.486 32.058 51.0064C32.0582 51.0076 32.0585 51.0087 32.0587 51.0099C32.1024 51.2202 32.1244 51.4402 32.1244 51.6637C32.1244 53.4729 30.6525 54.9447 28.8433 54.9447ZM28.8433 46.7419C26.7416 46.7419 24.8868 48.0883 24.203 50.023H21.4609C21.0085 50.023 20.6405 49.655 20.6405 49.2027V48.3824H23.1014C23.5545 48.3824 23.9217 48.0151 23.9217 47.5621V44.281C23.9217 43.828 23.5545 43.4607 23.1014 43.4607H20.6405V27.8756C20.6405 27.4233 21.0085 27.0553 21.4609 27.0553H44.9208C45.3731 27.0553 45.7411 27.4233 45.7411 27.8756C45.7411 28.4858 45.7411 48.0559 45.7411 50.0231H33.4833C32.7982 48.0873 30.9442 46.7419 28.8433 46.7419ZM32.5078 54.9447C33.2889 54.0732 33.765 52.9232 33.765 51.6637C34.3948 51.6637 49.2462 51.6637 49.5143 51.6637C49.5143 52.9232 49.9905 54.0733 50.7715 54.9447H32.5078ZM54.436 54.9447C52.6268 54.9447 51.1549 53.4728 51.1549 51.6637C51.1549 51.4402 51.1771 51.2203 51.2214 51.0064C51.5299 49.4861 52.8819 48.3825 54.436 48.3825C55.9902 48.3825 57.3422 49.486 57.6507 51.0064C57.6509 51.0076 57.6512 51.0087 57.6514 51.0099C57.695 51.2202 57.7171 51.4402 57.7171 51.6637C57.7172 53.4729 56.2452 54.9447 54.436 54.9447ZM59.3577 49.2028C59.3577 49.4756 59.2233 49.7171 59.0178 49.8663C58.2901 48.015 56.4797 46.742 54.436 46.742C52.3343 46.742 50.4795 48.0884 49.7957 50.0231H47.3816V35.2581H54.2424C54.5551 35.2581 54.8363 35.432 54.9762 35.7118L55.5696 36.8986H49.8425C49.3895 36.8986 49.0222 37.2659 49.0222 37.7189V44.2812C49.0222 44.7341 49.3895 45.1015 49.8425 45.1015H59.3577V49.2028Z" fill="#0080FC"/>
<path d="M41.6397 30.3364H31.3042C30.8511 30.3364 30.4839 30.7038 30.4839 31.1567C30.4839 31.6097 30.8511 31.9771 31.3042 31.9771H41.6397C42.0928 31.9771 42.46 31.6097 42.46 31.1567C42.46 30.7038 42.0927 30.3364 41.6397 30.3364Z" fill="#0080FC"/>
<path d="M41.6396 33.6175H34.5852C34.1321 33.6175 33.7649 33.9849 33.7649 34.4378C33.7649 34.8908 34.1321 35.2581 34.5852 35.2581H41.6396C42.0927 35.2581 42.46 34.8908 42.46 34.4378C42.46 33.9849 42.0926 33.6175 41.6396 33.6175Z" fill="#0080FC"/>
<path d="M54.436 50.0231C53.5313 50.0231 52.7954 50.7591 52.7954 51.6636C52.7954 52.5683 53.5314 53.3042 54.436 53.3042C55.3406 53.3042 56.0765 52.5682 56.0765 51.6636C56.0765 50.759 55.3406 50.0231 54.436 50.0231Z" fill="#0080FC"/>
<path d="M28.8434 50.0231C27.9388 50.0231 27.2029 50.7591 27.2029 51.6636C27.2029 52.5683 27.9389 53.3042 28.8434 53.3042C29.7481 53.3042 30.484 52.5682 30.484 51.6636C30.484 50.759 29.7481 50.0231 28.8434 50.0231Z" fill="#0080FC"/>
</g>
<defs>
<filter id="filter0_i_1345_8179" x="0" y="0.75" width="80" height="80" filterUnits="userSpaceOnUse" color-interpolation-filters="sRGB">
<feFlood flood-opacity="0" result="BackgroundImageFix"/>
<feBlend mode="normal" in="SourceGraphic" in2="BackgroundImageFix" result="shape"/>
<feColorMatrix in="SourceAlpha" type="matrix" values="0 0 0 0 0 0 0 0 0 0 0 0 0 0 0 0 0 0 127 0" result="hardAlpha"/>
<feMorphology radius="4" operator="erode" in="SourceAlpha" result="effect1_innerShadow_1345_8179"/>
<feOffset/>
<feGaussianBlur stdDeviation="12"/>
<feComposite in2="hardAlpha" operator="arithmetic" k2="-1" k3="1"/>
<feColorMatrix type="matrix" values="0 0 0 0 0.0509804 0 0 0 0 0.6 0 0 0 0 1 0 0 0 0.08 0"/>
<feBlend mode="normal" in2="shape" result="effect1_innerShadow_1345_8179"/>
</filter>
<clipPath id="clip0_1345_8179">
<rect width="42" height="42" fill="white" transform="translate(19 20)"/>
</clipPath>
</defs>
</svg>
