<svg width="24" height="25" viewBox="0 0 24 25" fill="none" xmlns="http://www.w3.org/2000/svg">
<g clip-path="url(#clip0_933_18421)">
<path d="M23.996 12.5C23.996 5.8725 18.6244 0.5 11.998 0.5C5.37177 0.5 0 5.8725 0 12.5C0 19.1275 5.37177 24.5 11.998 24.5C18.6244 24.5 23.996 19.1275 23.996 12.5Z" fill="#ECF7FF"/>
<path d="M17.3363 8.83582H15.4014C14.9852 8.83582 14.6187 8.56207 14.5004 8.16309L14.4758 8.08014C14.3079 7.51416 13.7881 7.12598 13.1978 7.12598H10.7927C10.1989 7.12598 9.67664 7.51874 9.51184 8.08929L9.49243 8.15668C9.37634 8.55896 9.00812 8.83582 8.58954 8.83582H6.65979C6.17694 8.83582 5.78564 9.22729 5.78564 9.71014V16.6601C5.78564 17.1429 6.17694 17.5344 6.65979 17.5344H17.3363C17.8192 17.5344 18.2106 17.1429 18.2106 16.6601V9.71014C18.2106 9.22729 17.8192 8.83582 17.3363 8.83582Z" fill="#0080FC"/>
<path d="M17.3363 8.83582H15.4014C14.9852 8.83582 14.6187 8.56207 14.5004 8.16309L14.4758 8.08014C14.3079 7.51416 13.7881 7.12598 13.1978 7.12598H11.998C12.5884 7.12598 13.1082 7.51416 13.2761 8.08014L13.3007 8.16309C13.4189 8.56207 13.7855 8.83582 14.2017 8.83582H15.9449C16.4279 8.83582 16.8192 9.22729 16.8192 9.71014V16.6601C16.8192 17.1429 16.4279 17.5344 15.9449 17.5344H17.3363C17.8192 17.5344 18.2106 17.1429 18.2106 16.6601V9.71014C18.2106 9.22729 17.8192 8.83582 17.3363 8.83582Z" fill="#0080FC"/>
<path d="M14.6923 12.982C14.6923 11.593 13.5663 10.467 12.1777 10.467C10.789 10.467 9.66309 11.593 9.66309 12.982C9.66309 14.371 10.789 15.4969 12.1777 15.4969C13.5663 15.4969 14.6923 14.371 14.6923 12.982Z" fill="white"/>
<path d="M13.8424 12.9819C13.8424 12.0626 13.0972 11.3171 12.1778 11.3171C11.2584 11.3171 10.5132 12.0626 10.5132 12.9819C10.5132 13.9015 11.2584 14.6467 12.1778 14.6467C13.0972 14.6467 13.8424 13.9015 13.8424 12.9819Z" fill="#0080FC"/>
<path d="M17.1831 10.2346C17.1831 10.4357 17.0201 10.5986 16.8191 10.5986C16.618 10.5986 16.4551 10.4357 16.4551 10.2346C16.4551 10.0336 16.618 9.87061 16.8191 9.87061C17.0201 9.87061 17.1831 10.0336 17.1831 10.2346Z" fill="white"/>
</g>
<defs>
<clipPath id="clip0_933_18421">
<rect width="24" height="24" fill="white" transform="translate(0 0.5)"/>
</clipPath>
</defs>
</svg>
