<svg width="32" height="33" viewBox="0 0 32 33" fill="none" xmlns="http://www.w3.org/2000/svg">
<g clip-path="url(#clip0_933_19013)">
<path d="M31.9946 16.5C31.9946 7.66333 24.8325 0.5 15.9973 0.5C7.16235 0.5 0 7.66333 0 16.5C0 25.3367 7.16235 32.5 15.9973 32.5C24.8325 32.5 31.9946 25.3367 31.9946 16.5Z" fill="#EAECF0"/>
<path d="M23.1147 11.6143H20.5349C19.98 11.6143 19.4912 11.2493 19.3335 10.7173L19.3008 10.6067C19.0769 9.85205 18.3838 9.33447 17.5967 9.33447H14.3899C13.5981 9.33447 12.9019 9.85815 12.6821 10.6189L12.6562 10.7087C12.5015 11.2451 12.0105 11.6143 11.4524 11.6143H8.87939C8.2356 11.6143 7.71387 12.1362 7.71387 12.78V22.0466C7.71387 22.6904 8.2356 23.2124 8.87939 23.2124H23.1147C23.7585 23.2124 24.2805 22.6904 24.2805 22.0466V12.78C24.2805 12.1362 23.7585 11.6143 23.1147 11.6143Z" fill="#98A2B3"/>
<path d="M23.1147 11.6143H20.5349C19.98 11.6143 19.4912 11.2493 19.3335 10.7173L19.3008 10.6067C19.0769 9.85205 18.3838 9.33447 17.5967 9.33447H15.9971C16.7842 9.33447 17.4773 9.85205 17.7012 10.6067L17.7339 10.7173C17.8916 11.2493 18.3804 11.6143 18.9353 11.6143H21.2595C21.9036 11.6143 22.4253 12.1362 22.4253 12.78V22.0466C22.4253 22.6904 21.9036 23.2124 21.2595 23.2124H23.1147C23.7585 23.2124 24.2805 22.6904 24.2805 22.0466V12.78C24.2805 12.1362 23.7585 11.6143 23.1147 11.6143Z" fill="#98A2B3"/>
<path d="M19.5898 17.1426C19.5898 15.2905 18.0886 13.7893 16.2371 13.7893C14.3855 13.7893 12.8843 15.2905 12.8843 17.1426C12.8843 18.9946 14.3855 20.4958 16.2371 20.4958C18.0886 20.4958 19.5898 18.9946 19.5898 17.1426Z" fill="#FCFCFD"/>
<path d="M18.4565 17.1426C18.4565 15.9167 17.4629 14.9229 16.2371 14.9229C15.0112 14.9229 14.0176 15.9167 14.0176 17.1426C14.0176 18.3687 15.0112 19.3623 16.2371 19.3623C17.4629 19.3623 18.4565 18.3687 18.4565 17.1426Z" fill="#98A2B3"/>
<path d="M22.9111 13.4795C22.9111 13.7476 22.6938 13.9648 22.4258 13.9648C22.1577 13.9648 21.9404 13.7476 21.9404 13.4795C21.9404 13.2114 22.1577 12.9941 22.4258 12.9941C22.6938 12.9941 22.9111 13.2114 22.9111 13.4795Z" fill="#FCFCFD"/>
</g>
<defs>
<clipPath id="clip0_933_19013">
<rect width="32" height="32" fill="white" transform="translate(0 0.5)"/>
</clipPath>
</defs>
</svg>
