<svg width="33" height="32" viewBox="0 0 33 32" fill="none" xmlns="http://www.w3.org/2000/svg">
<path d="M9.51323 29.3332H23.4866C27.1666 29.3332 28.6332 27.0798 28.8066 24.3332L29.4999 13.3198C29.6866 10.4398 27.3932 7.99984 24.4999 7.99984C23.6866 7.99984 22.9399 7.53317 22.5666 6.81317L21.6066 4.87984C20.9932 3.6665 19.3932 2.6665 18.0332 2.6665H14.9799C13.6066 2.6665 12.0066 3.6665 11.3932 4.87984L10.4332 6.81317C10.0599 7.53317 9.31323 7.99984 8.4999 7.99984C5.60656 7.99984 3.31323 10.4398 3.4999 13.3198L4.19323 24.3332C4.35323 27.0798 5.83323 29.3332 9.51323 29.3332Z" stroke="#667085" stroke-width="1.5" stroke-linecap="round" stroke-linejoin="round"/>
<path d="M14.5 10.6665H18.5" stroke="#667085" stroke-width="1.5" stroke-linecap="round" stroke-linejoin="round"/>
<path d="M16.4998 24.0002C18.8865 24.0002 20.8332 22.0535 20.8332 19.6668C20.8332 17.2802 18.8865 15.3335 16.4998 15.3335C14.1132 15.3335 12.1665 17.2802 12.1665 19.6668C12.1665 22.0535 14.1132 24.0002 16.4998 24.0002Z" stroke="#667085" stroke-width="1.5" stroke-linecap="round" stroke-linejoin="round"/>
</svg>
