<svg width="11" height="10" viewBox="0 0 11 10" fill="none" xmlns="http://www.w3.org/2000/svg">
<path fill-rule="evenodd" clip-rule="evenodd" d="M0.934425 0.434416C1.08445 0.284439 1.28789 0.200187 1.50002 0.200187C1.71216 0.200187 1.9156 0.284439 2.06562 0.434416L5.50002 3.86882L8.93443 0.434416C9.00822 0.358008 9.0965 0.297062 9.1941 0.255135C9.29171 0.213208 9.39668 0.191139 9.5029 0.190216C9.60913 0.189293 9.71447 0.209534 9.81279 0.249759C9.91111 0.289983 10.0004 0.349386 10.0755 0.4245C10.1507 0.499614 10.2101 0.588936 10.2503 0.687253C10.2905 0.78557 10.3107 0.890914 10.3098 0.997137C10.3089 1.10336 10.2868 1.20834 10.2449 1.30594C10.203 1.40354 10.142 1.49182 10.0656 1.56562L6.63122 5.00002L10.0656 8.43442C10.2114 8.5853 10.292 8.78738 10.2902 8.99714C10.2883 9.20689 10.2042 9.40754 10.0559 9.55587C9.90755 9.7042 9.7069 9.78833 9.49715 9.79016C9.28739 9.79198 9.08531 9.71134 8.93443 9.56562L5.50002 6.13122L2.06562 9.56562C1.91474 9.71134 1.71266 9.79198 1.5029 9.79016C1.29315 9.78833 1.0925 9.7042 0.94417 9.55587C0.795843 9.40754 0.711708 9.20689 0.709885 8.99714C0.708062 8.78738 0.788698 8.5853 0.934425 8.43442L4.36883 5.00002L0.934425 1.56562C0.784448 1.41559 0.700195 1.21215 0.700195 1.00002C0.700195 0.787885 0.784448 0.584438 0.934425 0.434416Z" fill="#1D2939"/>
</svg>
