<svg width="14" height="16" viewBox="0 0 14 16" fill="none" xmlns="http://www.w3.org/2000/svg">
<path d="M8.96875 12.3594C9.27936 12.3594 9.53125 12.1075 9.53125 11.7969V6.17188C9.53125 5.86126 9.27936 5.60938 8.96875 5.60938C8.65814 5.60938 8.40625 5.86126 8.40625 6.17188V11.7969C8.40625 12.1075 8.65814 12.3594 8.96875 12.3594Z" fill="#F97066"/>
<path d="M5.03125 12.3594C5.34186 12.3594 5.59375 12.1075 5.59375 11.7969V6.17188C5.59375 5.86126 5.34186 5.60938 5.03125 5.60938C4.72064 5.60938 4.46875 5.86126 4.46875 6.17188V11.7969C4.46875 12.1075 4.72064 12.3594 5.03125 12.3594Z" fill="#F97066"/>
<path d="M9.25 1.39062C9.56061 1.39062 9.8125 1.13874 9.8125 0.828125C9.8125 0.517513 9.56061 0.265625 9.25 0.265625H4.75C4.43939 0.265625 4.1875 0.517513 4.1875 0.828125C4.1875 1.13874 4.43939 1.39062 4.75 1.39062H9.25Z" fill="#F97066"/>
<path d="M0.8125 1.95312C0.501888 1.95312 0.25 2.20501 0.25 2.51562C0.25 2.82624 0.501888 3.07812 0.8125 3.07812H1.375V13.4281C1.375 14.6993 2.41 15.7344 3.68125 15.7344H10.3187C11.5899 15.7344 12.625 14.6994 12.625 13.4281V3.07812H13.1875C13.4981 3.07812 13.75 2.82624 13.75 2.51562C13.75 2.20501 13.4981 1.95312 13.1875 1.95312H12.0625H1.9375H0.8125ZM11.5 3.07812V13.4281C11.5 14.0806 10.9712 14.6094 10.3187 14.6094H3.68125C3.02875 14.6094 2.5 14.0806 2.5 13.4281V3.07812H11.5Z" fill="#F97066"/>
</svg>
