<svg width="40" height="36" viewBox="0 0 40 36" fill="none" xmlns="http://www.w3.org/2000/svg">
<rect x="0.5" y="0.5" width="39" height="35" rx="7.5" fill="white"/>
<rect x="0.5" y="0.5" width="39" height="35" rx="7.5" stroke="#0080FC"/>
<path d="M27.9594 20.0625C27.7936 20.0625 27.6346 20.1283 27.5174 20.2456C27.4002 20.3628 27.3344 20.5217 27.3344 20.6875V22.8219C27.3344 23.325 27.1345 23.8074 26.7788 24.1632C26.4231 24.5189 25.9406 24.7188 25.4375 24.7188H14.5625C14.0594 24.7188 13.5769 24.5189 13.2212 24.1632C12.8655 23.8074 12.6656 23.325 12.6656 22.8219V20.6875C12.6656 20.5217 12.5998 20.3628 12.4826 20.2456C12.3654 20.1283 12.2064 20.0625 12.0406 20.0625C11.8749 20.0625 11.7159 20.1283 11.5987 20.2456C11.4815 20.3628 11.4156 20.5217 11.4156 20.6875V22.8219C11.4165 23.6562 11.7483 24.4562 12.3382 25.0461C12.9282 25.6361 13.7282 25.9679 14.5625 25.9688H25.4375C26.2719 25.9679 27.0718 25.6361 27.6618 25.0461C28.2517 24.4562 28.5835 23.6562 28.5844 22.8219V20.6875C28.5844 20.5217 28.5185 20.3628 28.4013 20.2456C28.2841 20.1283 28.1251 20.0625 27.9594 20.0625Z" fill="#0080FC"/>
<path d="M19.5562 21.8875C19.6144 21.9461 19.6835 21.9926 19.7596 22.0243C19.8358 22.056 19.9175 22.0724 20 22.0724C20.0825 22.0724 20.1642 22.056 20.2404 22.0243C20.3165 21.9926 20.3856 21.9461 20.4437 21.8875L24 18.3313C24.0992 18.2119 24.1505 18.0598 24.1437 17.9047C24.137 17.7496 24.0728 17.6026 23.9636 17.4922C23.8544 17.3818 23.7081 17.3161 23.5531 17.3077C23.398 17.2993 23.2454 17.3489 23.125 17.4469L20.625 19.9469V10.6562C20.625 10.4905 20.5592 10.3315 20.4419 10.2143C20.3247 10.0971 20.1658 10.0312 20 10.0312C19.8342 10.0312 19.6753 10.0971 19.5581 10.2143C19.4408 10.3315 19.375 10.4905 19.375 10.6562V19.9375L16.875 17.4375C16.7577 17.3202 16.5987 17.2543 16.4328 17.2543C16.267 17.2543 16.1079 17.3202 15.9906 17.4375C15.8733 17.5548 15.8075 17.7138 15.8075 17.8797C15.8075 18.0455 15.8733 18.2046 15.9906 18.3219L19.5562 21.8875Z" fill="#0080FC"/>
</svg>
