<svg width="40" height="37" viewBox="0 0 40 37" fill="none" xmlns="http://www.w3.org/2000/svg">
<rect x="0.5" y="1" width="39" height="35" rx="7.5" fill="#0080FC"/>
<rect x="0.5" y="1" width="39" height="35" rx="7.5" stroke="#0080FC"/>
<path d="M27.9593 20.5625C27.7935 20.5625 27.6345 20.6283 27.5173 20.7456C27.4001 20.8628 27.3343 21.0217 27.3343 21.1875V23.3219C27.3343 23.825 27.1344 24.3074 26.7787 24.6632C26.423 25.0189 25.9405 25.2188 25.4374 25.2188H14.5624C14.0593 25.2188 13.5768 25.0189 13.2211 24.6632C12.8654 24.3074 12.6655 23.825 12.6655 23.3219V21.1875C12.6655 21.0217 12.5997 20.8628 12.4825 20.7456C12.3653 20.6283 12.2063 20.5625 12.0405 20.5625C11.8748 20.5625 11.7158 20.6283 11.5986 20.7456C11.4814 20.8628 11.4155 21.0217 11.4155 21.1875V23.3219C11.4164 24.1562 11.7482 24.9562 12.3381 25.5461C12.9281 26.1361 13.7281 26.4679 14.5624 26.4688H25.4374C26.2718 26.4679 27.0717 26.1361 27.6617 25.5461C28.2516 24.9562 28.5835 24.1562 28.5843 23.3219V21.1875C28.5843 21.0217 28.5184 20.8628 28.4012 20.7456C28.284 20.6283 28.125 20.5625 27.9593 20.5625Z" fill="white"/>
<path d="M19.5559 22.3875C19.614 22.4461 19.6831 22.4926 19.7593 22.5243C19.8355 22.556 19.9172 22.5724 19.9997 22.5724C20.0822 22.5724 20.1639 22.556 20.24 22.5243C20.3162 22.4926 20.3853 22.4461 20.4434 22.3875L23.9997 18.8313C24.0989 18.7119 24.1501 18.5598 24.1434 18.4047C24.1367 18.2496 24.0725 18.1026 23.9633 17.9922C23.8541 17.8818 23.7077 17.8161 23.5527 17.8077C23.3977 17.7993 23.2451 17.8489 23.1247 17.9469L20.6247 20.4469V11.1562C20.6247 10.9905 20.5588 10.8315 20.4416 10.7143C20.3244 10.5971 20.1654 10.5312 19.9997 10.5312C19.8339 10.5312 19.6749 10.5971 19.5577 10.7143C19.4405 10.8315 19.3747 10.9905 19.3747 11.1562V20.4375L16.8747 17.9375C16.7574 17.8202 16.5983 17.7543 16.4325 17.7543C16.2666 17.7543 16.1076 17.8202 15.9903 17.9375C15.873 18.0548 15.8071 18.2138 15.8071 18.3797C15.8071 18.5455 15.873 18.7046 15.9903 18.8219L19.5559 22.3875Z" fill="white"/>
</svg>
