<svg width="95" height="75" viewBox="0 0 95 75" fill="none" xmlns="http://www.w3.org/2000/svg">
<path d="M35.2376 20.996C35.2136 23.0378 33.53 24.6736 31.4773 24.6497L8.13363 24.3777C6.08089 24.3537 4.43632 22.6791 4.46037 20.6373C4.48442 18.5955 6.16799 16.9596 8.22072 16.9836L31.5644 17.2556C33.6171 17.2795 35.2617 18.9542 35.2376 20.996Z" fill="#0080FC"/>
<path d="M30.7775 37.0003C30.7535 39.0421 29.0699 40.678 27.0172 40.654L3.67351 40.382C1.62078 40.3581 -0.0237902 38.6835 0.000260466 36.6416C0.0243111 34.5998 1.70788 32.964 3.76061 32.9879L27.1043 33.26C29.157 33.2839 30.8016 34.9585 30.7775 37.0003Z" fill="#0080FC"/>
<path d="M35.2376 53.266C35.2136 55.3078 33.53 56.9436 31.4773 56.9197L8.13363 56.6476C6.08089 56.6237 4.43632 54.9491 4.46037 52.9073C4.48442 50.8655 6.16799 49.2296 8.22072 49.2535L31.5644 49.5256C33.6171 49.5495 35.2617 51.2241 35.2376 53.266Z" fill="#0080FC"/>
<path d="M54.123 4.46189C54.0989 6.50372 52.4154 8.13955 50.3626 8.11562L27.019 7.84357C24.9662 7.81965 23.3216 6.14503 23.3457 4.10321C23.3698 2.06139 25.0533 0.425555 27.1061 0.449478L50.4497 0.721528C52.5025 0.745451 54.147 2.42007 54.123 4.46189Z" fill="#0080FC"/>
<path d="M54.123 71.014C54.0989 73.0558 52.4154 74.6916 50.3626 74.6677L27.019 74.3957C24.9662 74.3717 23.3216 72.6971 23.3457 70.6553C23.3698 68.6135 25.0533 66.9776 27.1061 67.0016L50.4497 67.2736C52.5025 67.2975 54.147 68.9722 54.123 71.014Z" fill="#0080FC"/>
<path d="M38.5026 37.1345C38.6854 21.6166 51.4805 9.18432 67.0813 9.36614C82.6821 9.54795 95.1808 22.275 94.998 37.7929C94.8152 53.3108 82.0201 65.7431 66.4194 65.5613C50.8186 65.3794 38.3199 52.6524 38.5026 37.1345Z" fill="#0080FC"/>
</svg>
