<svg width="22" height="23" viewBox="0 0 22 23" fill="none" xmlns="http://www.w3.org/2000/svg">
<path d="M20.7489 9.87454C20.4103 9.6249 19.9837 9.31307 19.9321 9.10934C19.9538 8.71497 20.0664 8.33101 20.2611 7.98739C20.5595 7.30254 20.8675 6.59284 20.5251 6.00268C20.1827 5.41252 19.4041 5.31688 18.6552 5.23748C18.267 5.23488 17.8846 5.1436 17.537 4.97062C17.3638 4.6219 17.2728 4.23806 17.2711 3.84867C17.187 3.09975 17.0999 2.325 16.5059 1.97874C15.9119 1.63248 15.2013 1.9357 14.5165 2.23793C14.1725 2.43256 13.7882 2.54514 13.3936 2.56697C13.187 2.51151 12.8761 2.08872 12.6284 1.75012C12.1941 1.16476 11.7053 0.500977 10.9995 0.500977C10.2936 0.500977 9.80483 1.16476 9.37343 1.75012C9.12285 2.08966 8.81196 2.51532 8.60823 2.56792C8.21395 2.54415 7.83008 2.43171 7.48534 2.23887C6.79667 1.93565 6.08698 1.63342 5.49874 1.97394C4.91051 2.31446 4.81201 3.09495 4.72781 3.84863C4.72507 4.23667 4.63415 4.61903 4.46189 4.96677C4.11505 5.13728 3.73408 5.22686 3.34761 5.22883C2.59774 5.31298 1.82201 5.40005 1.47673 5.99403C1.13146 6.588 1.43472 7.29778 1.73695 7.98358C1.9323 8.32832 2.04492 8.71367 2.066 9.10934C2.01054 9.31594 1.58774 9.62777 1.24915 9.87454C0.663782 10.305 0 10.7947 0 11.5006C0 12.2065 0.663782 12.6962 1.25013 13.1266C1.58873 13.3762 2.01533 13.6881 2.06698 13.8918C2.04528 14.2862 1.93266 14.6701 1.73794 15.0138C1.43952 15.6986 1.13155 16.4083 1.47395 16.9985C1.81636 17.5886 2.59496 17.6843 3.34388 17.7637C3.73207 17.7663 4.11451 17.8576 4.46203 18.0305C4.63527 18.3793 4.72624 18.7631 4.72794 19.1525C4.8121 19.9014 4.89917 20.6761 5.49314 21.0224C6.08711 21.3687 6.79206 21.0568 7.47785 20.7584C7.82528 20.5659 8.2118 20.4548 8.60841 20.4332C8.81501 20.4887 9.12585 20.9115 9.37361 21.2501C9.80497 21.8354 10.2938 22.4992 10.9996 22.4992C11.7055 22.4992 12.1943 21.8354 12.6257 21.2501C12.8763 20.9105 13.1871 20.4849 13.3909 20.4323C13.7854 20.4546 14.1696 20.5672 14.5138 20.7613C15.1986 21.0598 15.9083 21.3658 16.4975 21.0263C17.0867 20.6867 17.1842 19.9053 17.2684 19.1554C17.2712 18.7673 17.3621 18.385 17.5343 18.0372C17.8818 17.8654 18.2639 17.7747 18.6515 17.7723C19.4014 17.6882 20.1771 17.6011 20.5224 17.0071C20.8676 16.4131 20.5559 15.7082 20.2584 15.0224C20.0637 14.6759 19.9523 14.2888 19.9332 13.8918C19.9887 13.6852 20.4115 13.3734 20.75 13.1266C21.3354 12.6953 22.0002 12.2056 22.0002 11.5006C22.0002 10.7957 21.3352 10.305 20.7489 9.87454Z" fill="#0080FC" fill-opacity="0.2"/>
<path d="M8.13017 13.8908C7.97965 13.8908 7.83789 13.8199 7.74759 13.6995L5.73898 11.0214V13.4126C5.73898 13.6767 5.52485 13.8908 5.26073 13.8908C4.9966 13.8908 4.78247 13.6767 4.78247 13.4126V9.58665C4.78247 9.32253 4.9966 9.1084 5.26073 9.1084C5.41124 9.1084 5.553 9.17928 5.6433 9.29971L7.65191 11.9778V9.58665C7.65191 9.32253 7.86604 9.1084 8.13017 9.1084C8.39429 9.1084 8.60842 9.32253 8.60842 9.58665V13.4126C8.60829 13.6183 8.47652 13.8009 8.2813 13.8659C8.23261 13.8824 8.18159 13.8908 8.13017 13.8908Z" fill="#0080FC"/>
<path d="M11.9562 13.8908H10.0432C9.77907 13.8908 9.56494 13.6767 9.56494 13.4126V9.58665C9.56494 9.32253 9.77907 9.1084 10.0432 9.1084H11.9562C12.2203 9.1084 12.4344 9.32253 12.4344 9.58665C12.4344 9.85078 12.2203 10.0649 11.9562 10.0649H10.5215V12.9343H11.9562C12.2203 12.9343 12.4344 13.1485 12.4344 13.4126C12.4344 13.6767 12.2203 13.8908 11.9562 13.8908Z" fill="#0080FC"/>
<path d="M11.9562 11.978H10.0432C9.77907 11.978 9.56494 11.7639 9.56494 11.4997C9.56494 11.2356 9.77907 11.0215 10.0432 11.0215H11.9562C12.2203 11.0215 12.4344 11.2356 12.4344 11.4997C12.4344 11.7639 12.2203 11.978 11.9562 11.978Z" fill="#0080FC"/>
<path d="M16.7385 13.8912C16.5324 13.8915 16.3493 13.7597 16.2842 13.5641L15.782 12.0557L15.2799 13.5641C15.2188 13.7705 15.022 13.9063 14.8074 13.8903C14.5949 13.8822 14.4134 13.7349 14.3617 13.5287L13.4052 9.70284C13.3413 9.44639 13.4974 9.18666 13.7538 9.12272C14.0103 9.05879 14.27 9.2149 14.3339 9.47136L14.8916 11.7038L15.3287 10.3924C15.4423 10.1418 15.7376 10.0307 15.9883 10.1444C16.0983 10.1943 16.1865 10.2824 16.2364 10.3924L16.6735 11.7038L17.2311 9.47136C17.295 9.2149 17.5547 9.05879 17.8112 9.12272C18.0677 9.18666 18.2238 9.44634 18.1599 9.70284L17.2034 13.5287C17.1517 13.7349 16.9701 13.8822 16.7577 13.8903L16.7385 13.8912Z" fill="#0080FC"/>
</svg>
