<svg width="16" height="17" viewBox="0 0 16 17" fill="none" xmlns="http://www.w3.org/2000/svg">
<path d="M3.1735 12.7907C3.1735 12.7907 3.22683 12.7907 3.24683 12.7907L5.20016 12.6107C5.4735 12.584 5.72683 12.464 5.92016 12.2707L13.2935 4.89738C13.6402 4.55072 13.8335 4.09072 13.8335 3.60405C13.8335 3.11738 13.6402 2.65738 13.2935 2.31072L12.8202 1.83738C12.1268 1.14405 10.9202 1.14405 10.2268 1.83738L9.28683 2.77738L2.86016 9.20405C2.66683 9.39738 2.54683 9.65072 2.52683 9.92405L2.34683 11.8774C2.32683 12.124 2.4135 12.364 2.58683 12.544C2.74683 12.704 2.9535 12.7907 3.1735 12.7907ZM11.5268 2.29738C11.7402 2.29738 11.9535 2.37738 12.1135 2.54405L12.5868 3.01738C12.7468 3.17738 12.8335 3.38405 12.8335 3.60405C12.8335 3.82405 12.7468 4.03738 12.5868 4.19072L12.0002 4.77738L10.3535 3.13072L10.9402 2.54405C11.1002 2.38405 11.3135 2.29738 11.5268 2.29738ZM3.52016 10.0174C3.52016 9.97738 3.54016 9.94405 3.56683 9.91738L9.64016 3.83738L11.2868 5.48405L5.2135 11.5574C5.2135 11.5574 5.14683 11.604 5.1135 11.604L3.36016 11.764L3.52016 10.0107V10.0174ZM15.1668 14.9174C15.1668 15.1907 14.9402 15.4174 14.6668 15.4174H1.3335C1.06016 15.4174 0.833496 15.1907 0.833496 14.9174C0.833496 14.644 1.06016 14.4174 1.3335 14.4174H14.6668C14.9402 14.4174 15.1668 14.644 15.1668 14.9174Z" fill="#0080FC"/>
</svg>
