<svg width="17" height="20" viewBox="0 0 17 20" fill="none" xmlns="http://www.w3.org/2000/svg">
<path d="M15.0879 5.38484C15.7252 5.38484 16.2418 4.86825 16.2418 4.23099C16.2418 3.59374 15.7252 3.07715 15.0879 3.07715C14.4507 3.07715 13.9341 3.59374 13.9341 4.23099C13.9341 4.86825 14.4507 5.38484 15.0879 5.38484Z" fill="#F97066"/>
<path d="M12.0113 3.07674C12.6485 3.07674 13.1651 2.56014 13.1651 1.92289C13.1651 1.28564 12.6485 0.769043 12.0113 0.769043C11.374 0.769043 10.8574 1.28564 10.8574 1.92289C10.8574 2.56014 11.374 3.07674 12.0113 3.07674Z" fill="#F97066"/>
<path d="M8.93412 2.30769C9.57137 2.30769 10.088 1.7911 10.088 1.15385C10.088 0.516595 9.57137 0 8.93412 0C8.29687 0 7.78027 0.516595 7.78027 1.15385C7.78027 1.7911 8.29687 2.30769 8.93412 2.30769Z" fill="#F97066"/>
<path d="M5.85746 3.84627C6.49471 3.84627 7.01131 3.32967 7.01131 2.69242C7.01131 2.05517 6.49471 1.53857 5.85746 1.53857C5.22021 1.53857 4.70361 2.05517 4.70361 2.69242C4.70361 3.32967 5.22021 3.84627 5.85746 3.84627Z" fill="#F97066"/>
<path d="M13.9342 4.23073V9.23073C13.9342 9.44304 13.7619 9.61535 13.5496 9.61535C13.3373 9.61535 13.165 9.44304 13.165 9.23073V1.92304H10.8573V8.4615C10.8573 8.67381 10.685 8.84612 10.4726 8.84612C10.2603 8.84612 10.088 8.67381 10.088 8.4615V1.15381H7.78034V8.4615C7.78034 8.67381 7.60803 8.84612 7.39572 8.84612C7.18341 8.84612 7.01111 8.67381 7.01111 8.4615V2.69227H4.70342V12.3077L3.14572 10.1761C2.68418 9.46458 1.78342 9.22612 1.12342 9.63381C0.465723 10.0507 0.302646 10.96 0.75803 11.6692C0.75803 11.6692 3.27034 15.4715 4.34111 17.0992C5.41188 18.7269 7.14649 20 10.3903 20C15.7611 20 16.2419 15.8523 16.2419 14.6153C16.2419 13.3784 16.2419 4.23073 16.2419 4.23073H13.9342Z" fill="#F97066"/>
</svg>
