<svg width="20" height="20" viewBox="0 0 20 20" fill="none" xmlns="http://www.w3.org/2000/svg">
<path d="M10 13C10.7956 13 11.5587 12.6839 12.1213 12.1213C12.6839 11.5587 13 10.7956 13 10C13 9.20435 12.6839 8.44129 12.1213 7.87868C11.5587 7.31607 10.7956 7 10 7C9.20435 7 8.44129 7.31607 7.87868 7.87868C7.31607 8.44129 7 9.20435 7 10C7 10.7956 7.31607 11.5587 7.87868 12.1213C8.44129 12.6839 9.20435 13 10 13Z" fill="#98A2B3"/>
<path fill-rule="evenodd" clip-rule="evenodd" d="M9.99995 4C8.19995 4 6.52495 4.967 5.22695 6.009C3.90995 7.065 2.86995 8.289 2.32395 8.985C1.85295 9.585 1.85295 10.415 2.32395 11.015C2.86995 11.711 3.90995 12.935 5.22695 13.991C6.52495 15.033 8.19995 16 9.99995 16C11.8 16 13.475 15.033 14.773 13.991C16.09 12.935 17.13 11.711 17.676 11.015C18.147 10.415 18.147 9.585 17.676 8.985C17.13 8.289 16.09 7.065 14.773 6.009C13.475 4.967 11.8 4 9.99995 4ZM3.50295 9.912C4.01495 9.26 4.97495 8.134 6.16595 7.179C7.37395 6.209 8.71395 5.5 9.99995 5.5C11.286 5.5 12.626 6.209 13.834 7.179C15.025 8.134 15.984 9.259 16.497 9.912C16.5173 9.93687 16.5285 9.96789 16.529 10C16.5285 10.0321 16.5173 10.0631 16.497 10.088C15.985 10.741 15.025 11.866 13.834 12.821C12.626 13.791 11.286 14.5 9.99995 14.5C8.71395 14.5 7.37395 13.791 6.16595 12.821C4.97595 11.866 4.01595 10.741 3.50295 10.089C3.48243 10.0639 3.47114 10.0325 3.47095 10C3.47095 9.974 3.47895 9.943 3.50295 9.912Z" fill="#98A2B3"/>
</svg>
