<svg width="17" height="18" viewBox="0 0 17 18" fill="none" xmlns="http://www.w3.org/2000/svg">
<path d="M13.7756 10.7881H14.2205C15.0596 10.7881 15.4787 10.7881 15.7394 10.5274C16.0001 10.2667 16.0001 9.84757 16.0001 9.00847V8.11864C16.0001 6.44042 16.0001 5.6022 15.4787 5.08077C14.9572 4.55933 14.119 4.55933 12.4408 4.55933H4.43236C2.75414 4.55933 1.91593 4.55933 1.39449 5.08077C0.873047 5.6022 0.873047 6.44042 0.873047 8.11864V9.8983C0.873047 10.3174 0.873047 10.5274 1.00296 10.6582C1.13377 10.7881 1.34377 10.7881 1.76288 10.7881H3.09762" stroke="#1D2939"/>
<path d="M3.54248 16.3994V9.00848C3.54248 8.16937 3.54248 7.75026 3.8032 7.48954C4.06392 7.22882 4.48303 7.22882 5.32214 7.22882H11.5509C12.39 7.22882 12.8092 7.22882 13.0699 7.48954C13.3306 7.75026 13.3306 8.16937 13.3306 9.00848V16.3994C13.3306 16.6815 13.3306 16.8221 13.238 16.8888C13.1455 16.9555 13.012 16.911 12.7451 16.8221L10.8159 16.1787C10.7671 16.1578 10.715 16.1451 10.662 16.1413C10.609 16.1481 10.5576 16.1638 10.5098 16.1876L8.60204 16.9511C8.55035 16.9774 8.49425 16.994 8.43654 17C8.37883 16.994 8.32272 16.9774 8.27103 16.9511L6.36324 16.1876C6.31572 16.1639 6.2646 16.1483 6.21196 16.1413C6.15861 16.1449 6.10625 16.1576 6.05713 16.1787L4.12799 16.8221C3.86104 16.911 3.72756 16.9555 3.63502 16.8888C3.54248 16.8221 3.54248 16.6815 3.54248 16.3994Z" stroke="#1D2939"/>
<path d="M6.21191 10.7881H9.77123M6.21191 13.4576H10.6611" stroke="#1D2939" stroke-linecap="round"/>
<path d="M13.3306 4.55931V4.20338C13.3306 2.69334 13.3306 1.93788 12.8617 1.46894C12.3927 1 11.6372 1 10.1272 1H6.74586C5.23582 1 4.48036 1 4.01142 1.46894C3.54248 1.93788 3.54248 2.69334 3.54248 4.20338V4.55931" stroke="#1D2939"/>
</svg>
