<svg width="16" height="18" viewBox="0 0 16 18" fill="none" xmlns="http://www.w3.org/2000/svg">
<path fill-rule="evenodd" clip-rule="evenodd" d="M6.35921 0.458252H9.64079C10.7121 0.458244 11.5654 0.458235 12.248 0.529944C12.9497 0.60366 13.5401 0.758511 14.0575 1.11455C14.4849 1.40859 14.8489 1.78852 15.1288 2.23027C15.4654 2.76137 15.6116 3.36575 15.6815 4.08917C15.75 4.79658 15.75 5.68238 15.75 6.80212V14.2943C15.75 16.1558 13.719 17.3669 12.1427 16.2718C11.7899 16.0267 11.3352 16.0267 10.9823 16.2718L10.1355 16.8601C10.114 16.875 10.1001 16.8847 10.087 16.8937C8.82096 17.7576 7.17913 17.7576 5.91303 16.8937C5.90002 16.8848 5.88628 16.8753 5.86529 16.8607L5.01773 16.2718C4.66483 16.0267 4.21017 16.0267 3.85728 16.2718C2.28103 17.3669 0.25 16.1558 0.25 14.2943V6.8021C0.249992 5.68237 0.249992 4.79657 0.318425 4.08917C0.3884 3.36574 0.534659 2.76137 0.8712 2.23027C1.15112 1.78852 1.51513 1.40859 1.94245 1.11455C2.45987 0.758511 3.05028 0.60366 3.75203 0.529944C4.43465 0.458235 5.28791 0.458244 6.35921 0.458252ZM3.88262 1.7731C3.28452 1.83594 2.92736 1.95417 2.65103 2.14431C2.36492 2.34119 2.11825 2.59763 1.92707 2.89934C1.73948 3.19537 1.62367 3.57843 1.56262 4.20953C1.50068 4.8497 1.5 5.67504 1.5 6.83515V14.2943C1.5 15.244 2.47566 15.7097 3.14409 15.2453C3.92578 14.7023 4.94922 14.7023 5.73091 15.2453L6.57538 15.8319L6.61754 15.8612C7.45871 16.4351 8.54129 16.4351 9.38246 15.8612L9.42463 15.8319L10.2691 15.2453C11.0508 14.7023 12.0742 14.7023 12.8559 15.2453C13.5244 15.7097 14.5 15.244 14.5 14.2943V6.83515C14.5 5.67504 14.4993 4.8497 14.4374 4.20953C14.3764 3.57843 14.2605 3.19537 14.073 2.89934C13.8818 2.59763 13.6351 2.34119 13.349 2.14431C13.0726 1.95417 12.7155 1.83594 12.1174 1.7731C11.5077 1.70906 10.7201 1.70825 9.60529 1.70825H6.39471C5.27988 1.70825 4.49232 1.70906 3.88262 1.7731ZM4.04166 5.71867C4.04166 5.37349 4.32148 5.09367 4.66666 5.09367H11.3333C11.6785 5.09367 11.9583 5.37349 11.9583 5.71867C11.9583 6.06384 11.6785 6.34367 11.3333 6.34367H4.66666C4.32148 6.34367 4.04166 6.06384 4.04166 5.71867ZM5.70833 8.94784C5.70833 8.60267 5.98815 8.32284 6.33333 8.32284H9.66663C10.0119 8.32284 10.2916 8.60267 10.2916 8.94784C10.2916 9.293 10.0119 9.57284 9.66663 9.57284H6.33333C5.98815 9.57284 5.70833 9.293 5.70833 8.94784Z" fill="#0080FC"/>
</svg>
