<svg width="44" height="41" viewBox="0 0 44 41" fill="none" xmlns="http://www.w3.org/2000/svg">
<rect x="0.5" y="1" width="43" height="39" rx="8.5" stroke="#0080FC" stroke-dasharray="2 2"/>
<path d="M21.965 25.65C18.845 25.65 17.765 23.46 17.765 20.625V20.37C17.765 16.65 19.64 14.625 22.205 14.625C24.155 14.625 25.445 15.585 25.7 17.46H23.84C23.645 16.65 23.225 16.17 22.19 16.17C20.75 16.17 19.805 17.445 19.745 19.89C20.24 19.065 21.125 18.51 22.4 18.51C24.455 18.51 25.925 19.92 25.925 22.005C25.925 24.18 24.395 25.65 21.965 25.65ZM21.935 24.18C23.135 24.18 23.945 23.325 23.945 22.05C23.945 20.76 23.165 19.89 21.935 19.89C20.72 19.89 19.865 20.745 19.865 21.93C19.865 23.355 20.72 24.18 21.935 24.18Z" fill="#0080FC"/>
</svg>
