<svg width="20" height="20" viewBox="0 0 20 20" fill="none" xmlns="http://www.w3.org/2000/svg">
<g clip-path="url(#clip0_3494_5419)">
<path d="M13.5303 9.64404C13.9714 9.64404 14.4027 9.51323 14.7695 9.26814C15.1363 9.02306 15.4221 8.6747 15.591 8.26714C15.7598 7.85957 15.8039 7.4111 15.7179 6.97843C15.6318 6.54576 15.4194 6.14833 15.1075 5.8364C14.7955 5.52446 14.3981 5.31203 13.9654 5.22596C13.5327 5.1399 13.0843 5.18407 12.6767 5.35289C12.2691 5.52171 11.9208 5.80759 11.6757 6.17439C11.4306 6.54119 11.2998 6.97243 11.2998 7.41358C11.2998 8.00513 11.5348 8.57246 11.9531 8.99076C12.3714 9.40905 12.9387 9.64404 13.5303 9.64404ZM13.5303 6.66748C13.6778 6.66748 13.8221 6.71124 13.9448 6.79322C14.0675 6.8752 14.1631 6.99173 14.2196 7.12806C14.276 7.26439 14.2908 7.4144 14.262 7.55913C14.2332 7.70386 14.1622 7.8368 14.0578 7.94114C13.9535 8.04549 13.8206 8.11654 13.6758 8.14533C13.5311 8.17412 13.3811 8.15935 13.2448 8.10288C13.1084 8.04641 12.9919 7.95078 12.9099 7.82808C12.8279 7.70539 12.7842 7.56114 12.7842 7.41358C12.7844 7.21576 12.8631 7.02611 13.0029 6.88624C13.1428 6.74636 13.3325 6.66769 13.5303 6.66748Z" fill="#007AFF"/>
<path d="M19.5938 4.71214C19.2289 2.6469 17.3532 0.771121 15.2879 0.406278C14.0348 0.198075 12.3293 0.00276204 10 2.76664e-05C7.67073 -0.00270671 5.96526 0.197684 4.71214 0.406278C2.6469 0.771121 0.771121 2.6469 0.406278 4.71214C0.198075 5.96526 0.00276204 7.67073 2.76664e-05 10C-0.00270671 12.3293 0.197684 14.0348 0.406278 15.2879C0.771121 17.3532 2.6469 19.2289 4.71214 19.5938C5.96526 19.8024 7.67073 19.9973 10 20C12.3293 20.0028 14.0348 19.8024 15.2879 19.5938C17.3532 19.2289 19.2289 17.3532 19.5938 15.2879C19.802 14.0348 19.9973 12.3293 20 10C20.0028 7.67073 19.802 5.96526 19.5938 4.71214ZM1.86917 4.9637C2.12854 3.51565 3.51565 2.12893 4.9637 1.86917C6.51057 1.61253 8.15784 1.48636 10 1.4844C11.8422 1.48245 13.4887 1.61253 15.0364 1.86917C16.4844 2.12854 17.8711 3.51565 18.1309 4.96331C18.3875 6.51096 18.5133 8.15862 18.5157 10C18.5157 11.1559 18.4641 12.2352 18.3637 13.261C18.0121 12.7614 17.6606 12.2598 17.3032 11.7516C16.7364 10.9528 15.8547 10.4875 14.9442 10.5106C14.0766 10.5309 13.2996 10.9793 12.8133 11.7379C12.7248 11.8757 12.6356 12.0137 12.5457 12.152C12.4008 12.3746 12.2074 12.409 12.1051 12.4098H12.1024C11.9188 12.4098 11.7465 12.309 11.6293 12.1328C10.7563 10.8246 9.73284 9.27737 8.76526 7.7219C8.28675 6.9512 7.52854 6.49768 6.68557 6.47737C5.78948 6.45432 4.94886 6.91604 4.38089 7.74143C3.52581 8.98714 2.63987 10.2446 1.78323 11.461L1.53167 11.8176C1.50042 11.2317 1.4844 10.6274 1.4844 10C1.48675 8.15823 1.61253 6.51057 1.86917 4.9637ZM15.0364 18.1309C13.4891 18.3875 11.8414 18.5157 10 18.5157C8.15862 18.5157 6.51096 18.3875 4.96331 18.1309C3.51565 17.8711 2.12854 16.4844 1.86917 15.0367C1.81708 14.7289 1.77125 14.4164 1.73167 14.0992C1.73518 14.0946 1.73909 14.0907 1.74222 14.086L1.9344 13.8215L1.94143 13.8117C2.29013 13.3144 2.64169 12.8151 2.99612 12.3141C3.8555 11.0942 4.74417 9.83284 5.60315 8.58167C5.87659 8.18479 6.24925 7.9594 6.62776 7.9594H6.65081C6.98909 7.96761 7.29261 8.16096 7.50589 8.50432C8.48479 10.0778 9.51604 11.6375 10.3965 12.9547C10.7871 13.5426 11.4258 13.8922 12.1047 13.8922H12.116C12.4503 13.8877 12.7782 13.8002 13.0703 13.6375C13.3623 13.4748 13.6093 13.2421 13.7891 12.9602C13.8797 12.8203 13.9699 12.6809 14.0606 12.5399C14.2805 12.1969 14.6074 12.0032 14.9778 11.993C15.4004 11.9848 15.8059 12.2078 16.0895 12.6074C16.7535 13.5496 17.402 14.4719 18.0407 15.3961C17.6387 16.709 16.3645 17.893 15.0364 18.1309Z" fill="#007AFF"/>
</g>
<defs>
<clipPath id="clip0_3494_5419">
<rect width="20" height="20" fill="white"/>
</clipPath>
</defs>
</svg>
