<svg width="50" height="50" viewBox="0 0 50 50" fill="none" xmlns="http://www.w3.org/2000/svg">
<path d="M43.6876 33.4998C43.1876 39.0623 39.1667 42.7082 33.3334 42.7082H14.5834C8.83341 42.7082 4.16675 38.0415 4.16675 32.2915V17.7082C4.16675 12.0415 7.58341 8.08317 12.8959 7.4165C13.4376 7.33317 14.0001 7.2915 14.5834 7.2915H33.3334C33.8751 7.2915 34.3959 7.31234 34.8959 7.39567C39.8751 7.979 43.2501 11.4582 43.6876 16.4998C43.7501 17.104 43.2501 17.604 42.6459 17.604H39.4167C37.4167 17.604 35.5626 18.3748 34.2292 19.7498C32.6459 21.2915 31.8542 23.4582 32.0417 25.6248C32.3751 29.4165 35.7084 32.3957 39.6667 32.3957H42.6459C43.2501 32.3957 43.7501 32.8957 43.6876 33.4998Z" fill="#F97066"/>
<path d="M45.8334 22.854V27.1457C45.8334 28.2915 44.9167 29.229 43.75 29.2707H39.6667C37.4167 29.2707 35.3542 27.6248 35.1667 25.3748C35.0417 24.0623 35.5417 22.8332 36.4167 21.979C37.1875 21.1873 38.25 20.729 39.4167 20.729H43.75C44.9167 20.7707 45.8334 21.7082 45.8334 22.854Z" fill="#F97066"/>
</svg>
