<svg width="16" height="19" viewBox="0 0 16 19" fill="none" xmlns="http://www.w3.org/2000/svg">
<path fill-rule="evenodd" clip-rule="evenodd" d="M6.35921 0.958008H9.64079C10.7121 0.958 11.5654 0.957991 12.248 1.0297C12.9497 1.10342 13.5401 1.25827 14.0575 1.61431C14.4849 1.90835 14.8489 2.28827 15.1288 2.73002C15.4654 3.26112 15.6116 3.86551 15.6815 4.58892C15.75 5.29633 15.75 6.18213 15.75 7.30188V14.794C15.75 16.6555 13.719 17.8667 12.1427 16.7716C11.7899 16.5264 11.3352 16.5264 10.9823 16.7716L10.1355 17.3598C10.114 17.3748 10.1001 17.3844 10.087 17.3934C8.82096 18.2573 7.17913 18.2573 5.91303 17.3934C5.90002 17.3846 5.88628 17.375 5.86529 17.3604L5.01773 16.7716C4.66483 16.5264 4.21017 16.5264 3.85728 16.7716C2.28103 17.8667 0.25 16.6555 0.25 14.794V7.30186C0.249992 6.18213 0.249992 5.29632 0.318425 4.58892C0.3884 3.8655 0.534659 3.26112 0.8712 2.73002C1.15112 2.28827 1.51513 1.90835 1.94245 1.61431C2.45987 1.25827 3.05028 1.10342 3.75203 1.0297C4.43465 0.957991 5.28791 0.958 6.35921 0.958008ZM3.88262 2.27286C3.28452 2.33569 2.92736 2.45392 2.65103 2.64407C2.36492 2.84095 2.11825 3.09738 1.92707 3.39909C1.73948 3.69512 1.62367 4.07818 1.56262 4.70928C1.50068 5.34946 1.5 6.1748 1.5 7.33491V14.794C1.5 15.7438 2.47566 16.2094 3.14409 15.745C3.92578 15.202 4.94922 15.202 5.73091 15.745L6.57538 16.3317L6.61754 16.3609C7.45871 16.9348 8.54129 16.9348 9.38246 16.3609L9.42463 16.3317L10.2691 15.745C11.0508 15.202 12.0742 15.202 12.8559 15.745C13.5244 16.2094 14.5 15.7438 14.5 14.794V7.33491C14.5 6.1748 14.4993 5.34946 14.4374 4.70928C14.3764 4.07818 14.2605 3.69512 14.073 3.39909C13.8818 3.09738 13.6351 2.84095 13.349 2.64407C13.0726 2.45392 12.7155 2.33569 12.1174 2.27286C11.5077 2.20882 10.7201 2.20801 9.60529 2.20801H6.39471C5.27988 2.20801 4.49232 2.20882 3.88262 2.27286ZM4.04166 6.21842C4.04166 5.87325 4.32148 5.59342 4.66666 5.59342H11.3333C11.6785 5.59342 11.9583 5.87325 11.9583 6.21842C11.9583 6.5636 11.6785 6.84342 11.3333 6.84342H4.66666C4.32148 6.84342 4.04166 6.5636 4.04166 6.21842ZM5.70833 9.44759C5.70833 9.10242 5.98815 8.82259 6.33333 8.82259H9.66663C10.0119 8.82259 10.2916 9.10242 10.2916 9.44759C10.2916 9.79276 10.0119 10.0726 9.66663 10.0726H6.33333C5.98815 10.0726 5.70833 9.79276 5.70833 9.44759Z" fill="#0080FC"/>
</svg>
