<svg width="31" height="33" viewBox="0 0 31 33" fill="none" xmlns="http://www.w3.org/2000/svg">
<g clip-path="url(#clip0_933_19022)">
<path d="M30.9309 16.7822C30.9309 8.23937 24.0069 1.31421 15.4654 1.31421C6.92422 1.31421 0 8.23937 0 16.7822C0 25.3251 6.92422 32.2503 15.4654 32.2503C24.0069 32.2503 30.9309 25.3251 30.9309 16.7822Z" fill="#ECF7FF"/>
<path d="M25.3795 4.91089C27.3855 7.51966 28.5791 10.786 28.5791 14.3313C28.5791 22.8742 21.6549 29.7993 13.1136 29.7993C9.3408 29.7993 5.884 28.4476 3.19971 26.2026C6.02703 29.8798 10.4692 32.2502 15.4656 32.2502C24.0071 32.2502 30.931 25.325 30.931 16.7822C30.931 12.0128 28.7724 7.74836 25.3795 4.91089Z" fill="#ECF7FF"/>
<path d="M22.3463 12.059H19.8523C19.3158 12.059 18.8433 11.7061 18.6908 11.1918L18.6592 11.0849C18.4428 10.3554 17.7727 9.85498 17.0117 9.85498H13.9116C13.1462 9.85498 12.473 10.3613 12.2606 11.0967L12.2356 11.1836C12.0859 11.7021 11.6113 12.059 11.0717 12.059H8.5843C7.9619 12.059 7.45752 12.5636 7.45752 13.186V22.1445C7.45752 22.7669 7.9619 23.2715 8.5843 23.2715H22.3463C22.9687 23.2715 23.4734 22.7669 23.4734 22.1445V13.186C23.4734 12.5636 22.9687 12.059 22.3463 12.059Z" fill="#0080FC"/>
<path d="M22.3464 12.059H19.8523C19.3158 12.059 18.8433 11.7061 18.6908 11.1918L18.6592 11.0849C18.4428 10.3554 17.7727 9.85498 17.0118 9.85498H15.4653C16.2263 9.85498 16.8963 10.3554 17.1128 11.0849L17.1444 11.1918C17.2969 11.7061 17.7694 12.059 18.3059 12.059H20.5528C21.1754 12.059 21.6798 12.5636 21.6798 13.186V22.1445C21.6798 22.7669 21.1754 23.2715 20.5528 23.2715H22.3464C22.9688 23.2715 23.4734 22.7669 23.4734 22.1445V13.186C23.4734 12.5636 22.9688 12.059 22.3464 12.059Z" fill="#0080FC"/>
<path d="M18.9387 17.4034C18.9387 15.6129 17.4874 14.1616 15.6974 14.1616C13.9074 14.1616 12.4561 15.6129 12.4561 17.4034C12.4561 19.1939 13.9074 20.6452 15.6974 20.6452C17.4874 20.6452 18.9387 19.1939 18.9387 17.4034Z" fill="#ECF7FF"/>
<path d="M17.8431 17.4035C17.8431 16.2184 16.8825 15.2576 15.6974 15.2576C14.5124 15.2576 13.5518 16.2184 13.5518 17.4035C13.5518 18.5888 14.5124 19.5494 15.6974 19.5494C16.8825 19.5494 17.8431 18.5888 17.8431 17.4035Z" fill="#0080FC"/>
<path d="M22.1494 13.862C22.1494 14.1212 21.9393 14.3313 21.6802 14.3313C21.421 14.3313 21.2109 14.1212 21.2109 13.862C21.2109 13.6029 21.421 13.3928 21.6802 13.3928C21.9393 13.3928 22.1494 13.6029 22.1494 13.862Z" fill="#ECF7FF"/>
</g>
<g clip-path="url(#clip1_933_19022)">
<path d="M25.136 0.749756C22.4706 0.749756 20.3022 2.91807 20.3022 5.58352C20.3022 8.24896 22.4706 10.4173 25.136 10.4173C27.8014 10.4173 29.9698 8.24896 29.9698 5.58352C29.9698 2.91807 27.8014 0.749756 25.136 0.749756Z" fill="#12B76A"/>
<path d="M27.5858 4.5593L24.9675 7.17753C24.889 7.25608 24.7859 7.29562 24.6828 7.29562C24.5796 7.29562 24.4765 7.25608 24.398 7.17753L23.0889 5.86841C22.9313 5.71094 22.9313 5.45633 23.0889 5.29886C23.2463 5.14131 23.5009 5.14131 23.6584 5.29886L24.6828 6.3232L27.0163 3.98974C27.1738 3.8322 27.4283 3.8322 27.5858 3.98974C27.7433 4.14721 27.7433 4.40175 27.5858 4.5593Z" fill="#FAFAFA"/>
</g>
<defs>
<clipPath id="clip0_933_19022">
<rect width="30.9361" height="30.9361" fill="white" transform="translate(0 1.31421)"/>
</clipPath>
<clipPath id="clip1_933_19022">
<rect width="9.66752" height="9.66752" fill="white" transform="translate(20.3022 0.749756)"/>
</clipPath>
</defs>
</svg>
