<svg width="121" height="120" viewBox="0 0 121 120" fill="none" xmlns="http://www.w3.org/2000/svg">
<circle cx="60.4998" cy="60.0001" r="49.0909" fill="#FEF3F2"/>
<path d="M78.6876 68.4998C78.1876 74.0623 74.1667 77.7082 68.3334 77.7082H49.5834C43.8334 77.7082 39.1667 73.0415 39.1667 67.2915V52.7082C39.1667 47.0415 42.5834 43.0832 47.8959 42.4165C48.4376 42.3332 49.0001 42.2915 49.5834 42.2915H68.3334C68.8751 42.2915 69.3959 42.3123 69.8959 42.3957C74.8751 42.979 78.2501 46.4582 78.6876 51.4998C78.7501 52.104 78.2501 52.604 77.6459 52.604H74.4167C72.4167 52.604 70.5626 53.3748 69.2292 54.7498C67.6459 56.2915 66.8542 58.4582 67.0417 60.6248C67.3751 64.4165 70.7084 67.3957 74.6667 67.3957H77.6459C78.2501 67.3957 78.7501 67.8957 78.6876 68.4998Z" fill="#F97066"/>
<path d="M80.8334 57.854V62.1457C80.8334 63.2915 79.9167 64.229 78.75 64.2707H74.6667C72.4167 64.2707 70.3542 62.6248 70.1667 60.3748C70.0417 59.0623 70.5417 57.8332 71.4167 56.979C72.1875 56.1873 73.25 55.729 74.4167 55.729H78.75C79.9167 55.7707 80.8334 56.7082 80.8334 57.854Z" fill="#F97066"/>
</svg>
