<svg width="40" height="41" viewBox="0 0 40 41" fill="none" xmlns="http://www.w3.org/2000/svg">
<g filter="url(#filter0_b_933_19255)">
<rect y="0.5" width="40" height="40" rx="20" fill="black" fill-opacity="0.2"/>
<path fill-rule="evenodd" clip-rule="evenodd" d="M14.2928 14.7931C14.4803 14.6056 14.7346 14.5003 14.9998 14.5003C15.265 14.5003 15.5193 14.6056 15.7068 14.7931L19.9998 19.0861L24.2928 14.7931C24.385 14.6976 24.4954 14.6214 24.6174 14.569C24.7394 14.5166 24.8706 14.489 25.0034 14.4878C25.1362 14.4867 25.2678 14.512 25.3907 14.5623C25.5136 14.6125 25.6253 14.6868 25.7192 14.7807C25.8131 14.8746 25.8873 14.9862 25.9376 15.1091C25.9879 15.232 26.0132 15.3637 26.012 15.4965C26.0109 15.6293 25.9833 15.7605 25.9309 15.8825C25.8785 16.0045 25.8023 16.1148 25.7068 16.2071L21.4138 20.5001L25.7068 24.7931C25.8889 24.9817 25.9897 25.2343 25.9875 25.4965C25.9852 25.7587 25.88 26.0095 25.6946 26.1949C25.5092 26.3803 25.2584 26.4855 24.9962 26.4878C24.734 26.49 24.4814 26.3892 24.2928 26.2071L19.9998 21.9141L15.7068 26.2071C15.5182 26.3892 15.2656 26.49 15.0034 26.4878C14.7412 26.4855 14.4904 26.3803 14.305 26.1949C14.1196 26.0095 14.0144 25.7587 14.0121 25.4965C14.0098 25.2343 14.1106 24.9817 14.2928 24.7931L18.5858 20.5001L14.2928 16.2071C14.1053 16.0196 14 15.7652 14 15.5001C14 15.2349 14.1053 14.9806 14.2928 14.7931Z" fill="white"/>
</g>
<defs>
<filter id="filter0_b_933_19255" x="-8" y="-7.5" width="56" height="56" filterUnits="userSpaceOnUse" color-interpolation-filters="sRGB">
<feFlood flood-opacity="0" result="BackgroundImageFix"/>
<feGaussianBlur in="BackgroundImageFix" stdDeviation="4"/>
<feComposite in2="SourceAlpha" operator="in" result="effect1_backgroundBlur_933_19255"/>
<feBlend mode="normal" in="SourceGraphic" in2="effect1_backgroundBlur_933_19255" result="shape"/>
</filter>
</defs>
</svg>
