<svg width="99" height="100" viewBox="0 0 99 100" fill="none" xmlns="http://www.w3.org/2000/svg">
<circle cx="49.5001" cy="50.0001" r="49.0909" fill="#FEF3F2"/>
<path fill-rule="evenodd" clip-rule="evenodd" d="M35.4167 29.1667H64.5833C66.875 29.1667 68.75 31.0417 68.75 33.3334V65.0001C68.75 67.9167 65.8333 70.0001 63.125 68.9584L59.7917 67.7084C58.75 67.2917 57.7083 67.2917 56.6667 67.9167L51.6667 70.2084C50.625 70.6251 49.375 70.6251 48.3333 70.2084L43.3333 67.9167C42.2917 67.5001 41.25 67.5001 40.2083 67.7084L36.875 68.7501C34.1667 69.7917 31.25 67.7084 31.25 65.0001V33.3334C31.25 31.0417 33.125 29.1667 35.4167 29.1667ZM60.4167 41.2501C61.25 41.2501 62.0833 40.6251 62.0833 39.5834C62.0833 38.5417 61.25 37.9167 60.4167 37.9167H39.5833C38.75 37.9167 37.9167 38.7501 37.9167 39.5834C37.9167 40.4167 38.75 41.2501 39.5833 41.2501H60.4167ZM62.0833 47.9167C62.0833 48.7501 61.4583 49.5834 60.4167 49.5834H39.5833C38.75 49.5834 37.9167 48.9584 37.9167 47.9167C37.9167 46.8751 38.5417 46.2501 39.5833 46.2501H60.4167C61.25 46.2501 62.0833 47.0834 62.0833 47.9167ZM50 57.9167C50.8333 57.9167 51.6667 57.2917 51.6667 56.2501C51.6667 55.2084 51.0417 54.5834 50 54.5834H39.5833C38.75 54.5834 37.9167 55.2084 37.9167 56.2501C37.9167 57.2917 38.5417 57.9167 39.5833 57.9167H50Z" fill="#F97066"/>
</svg>
