<svg width="16" height="17" viewBox="0 0 16 17" fill="none" xmlns="http://www.w3.org/2000/svg">
<path d="M3.1735 13.0405C3.1735 13.0405 3.22683 13.0405 3.24683 13.0405L5.20016 12.8605C5.4735 12.8338 5.72683 12.7138 5.92016 12.5205L13.2935 5.14714C13.6402 4.80047 13.8335 4.34047 13.8335 3.85381C13.8335 3.36714 13.6402 2.90714 13.2935 2.56047L12.8202 2.08714C12.1268 1.39381 10.9202 1.39381 10.2268 2.08714L9.28683 3.02714L2.86016 9.4538C2.66683 9.64714 2.54683 9.90047 2.52683 10.1738L2.34683 12.1271C2.32683 12.3738 2.4135 12.6138 2.58683 12.7938C2.74683 12.9538 2.9535 13.0405 3.1735 13.0405ZM11.5268 2.54714C11.7402 2.54714 11.9535 2.62714 12.1135 2.79381L12.5868 3.26714C12.7468 3.42714 12.8335 3.63381 12.8335 3.85381C12.8335 4.07381 12.7468 4.28714 12.5868 4.44047L12.0002 5.02714L10.3535 3.38047L10.9402 2.79381C11.1002 2.63381 11.3135 2.54714 11.5268 2.54714ZM3.52016 10.2671C3.52016 10.2271 3.54016 10.1938 3.56683 10.1671L9.64016 4.08714L11.2868 5.73381L5.2135 11.8071C5.2135 11.8071 5.14683 11.8538 5.1135 11.8538L3.36016 12.0138L3.52016 10.2605V10.2671ZM15.1668 15.1671C15.1668 15.4405 14.9402 15.6671 14.6668 15.6671H1.3335C1.06016 15.6671 0.833496 15.4405 0.833496 15.1671C0.833496 14.8938 1.06016 14.6671 1.3335 14.6671H14.6668C14.9402 14.6671 15.1668 14.8938 15.1668 15.1671Z" fill="#98A2B3"/>
</svg>
