<svg width="40" height="40" viewBox="0 0 40 40" fill="none" xmlns="http://www.w3.org/2000/svg">
<g clip-path="url(#clip0_1955_23115)">
<path d="M20 30C14.4861 30 10 25.5139 10 20C10 14.4861 14.4861 10 20 10C25.5139 10 30 14.4861 30 20C30 25.5139 25.5139 30 20 30ZM20 11.25C15.1752 11.25 11.25 15.1752 11.25 20C11.25 24.8248 15.1752 28.75 20 28.75C24.8248 28.75 28.75 24.8248 28.75 20C28.75 15.1752 24.8248 11.25 20 11.25ZM25 20C25 19.6545 24.7205 19.375 24.375 19.375H15.625C15.2795 19.375 15 19.6545 15 20C15 20.3455 15.2795 20.625 15.625 20.625H24.375C24.7205 20.625 25 20.3455 25 20Z" fill="#EE6A5F"/>
</g>
<defs>
<clipPath id="clip0_1955_23115">
<rect width="20" height="20" fill="white" transform="translate(10 10)"/>
</clipPath>
</defs>
</svg>
