<svg width="50" height="39" viewBox="0 0 50 39" fill="none" xmlns="http://www.w3.org/2000/svg">
<rect x="0.5" y="1" width="49" height="37" rx="8.5" stroke="#D0D5DD" stroke-dasharray="2 2"/>
<path d="M20.1732 24.04C20.1732 24.04 20.2266 24.04 20.2466 24.04L22.1999 23.86C22.4732 23.8333 22.7266 23.7133 22.9199 23.52L30.2932 16.1467C30.6399 15.8 30.8332 15.34 30.8332 14.8533C30.8332 14.3667 30.6399 13.9067 30.2932 13.56L29.8199 13.0867C29.1266 12.3933 27.9199 12.3933 27.2266 13.0867L26.2866 14.0267L19.8599 20.4533C19.6666 20.6467 19.5466 20.9 19.5266 21.1733L19.3466 23.1267C19.3266 23.3733 19.4132 23.6133 19.5866 23.7933C19.7466 23.9533 19.9532 24.04 20.1732 24.04ZM28.5266 13.5467C28.7399 13.5467 28.9532 13.6267 29.1132 13.7933L29.5866 14.2667C29.7466 14.4267 29.8332 14.6333 29.8332 14.8533C29.8332 15.0733 29.7466 15.2867 29.5866 15.44L28.9999 16.0267L27.3532 14.38L27.9399 13.7933C28.0999 13.6333 28.3132 13.5467 28.5266 13.5467ZM20.5199 21.2667C20.5199 21.2267 20.5399 21.1933 20.5666 21.1667L26.6399 15.0867L28.2866 16.7333L22.2132 22.8067C22.2132 22.8067 22.1466 22.8533 22.1132 22.8533L20.3599 23.0133L20.5199 21.26V21.2667Z" fill="#D0D5DD"/>
</svg>
