<?xml version="1.0" encoding="utf-8"?>
<!-- Generator: Adobe Illustrator 24.3.0, SVG Export Plug-In . SVG Version: 6.00 Build 0)  -->
<svg version="1.1" id="Layer_1" xmlns="http://www.w3.org/2000/svg" xmlns:xlink="http://www.w3.org/1999/xlink" x="0px" y="0px"
	 viewBox="0 0 32 32" style="enable-background:new 0 0 32 32;" xml:space="preserve">
<style type="text/css">
	.st0{fill:#D92D20;}
</style>
<path class="st0" d="M26,13.7h-1.8l-5.1-4.5C19,9.1,18.8,9,18.7,9h-12C6.4,9,6.2,9.1,6.1,9.3l-2.5,4.3H3.3C2.6,13.7,2,14.3,2,15v2
	c0,1.6,1.2,3,2.7,3.3C5,21.8,6.4,23,8,23c1.6,0,2.9-1.1,3.3-2.7h8.8c0.3,1.5,1.7,2.7,3.3,2.7s2.9-1.1,3.3-2.7h2.7
	c0.4,0,0.7-0.3,0.7-0.7v-2C30,15.5,28.2,13.7,26,13.7z M15.3,10.3h3.1l3.8,3.3h-6.9V10.3z M7.1,10.3H14v3.3H5.1L7.1,10.3z M8,21.7
	c-1.1,0-2-0.9-2-2s0.9-2,2-2s2,0.9,2,2S9.1,21.7,8,21.7z M23.3,21.7c-1.1,0-2-0.9-2-2s0.9-2,2-2s2,0.9,2,2S24.4,21.7,23.3,21.7z
	 M28.7,19h-2.1c-0.3-1.5-1.7-2.7-3.3-2.7c-1.6,0-2.9,1.1-3.3,2.7h-8.8c-0.3-1.5-1.7-2.7-3.3-2.7c-1.6,0-2.9,1.1-3.2,2.6
	c-0.8-0.2-1.4-1-1.4-1.9v-2H26c1.5,0,2.7,1.2,2.7,2.7V19z"/>
</svg>
