<svg width="40" height="27" viewBox="0 0 40 27" fill="none" xmlns="http://www.w3.org/2000/svg">
<path d="M37.7188 12.375H35.0938V7.78125C35.0938 3.80081 31.8554 0.5625 27.875 0.5625H20.6562C20.2938 0.5625 20 0.856339 20 1.21875V12.375H17.375V10.4062H18.0312C18.3937 10.4062 18.6875 10.1124 18.6875 9.75C18.6875 9.38759 18.3937 9.09375 18.0312 9.09375H17.375V6.46875H18.0312C18.3937 6.46875 18.6875 6.17491 18.6875 5.8125C18.6875 5.45009 18.3937 5.15625 18.0312 5.15625H17.375V3.1875C17.375 2.82509 17.0812 2.53125 16.7188 2.53125C16.3563 2.53125 16.0625 2.82509 16.0625 3.1875V5.15625H6.21875V3.1875C6.21875 2.82509 5.92491 2.53125 5.5625 2.53125C5.20009 2.53125 4.90625 2.82509 4.90625 3.1875V5.15625H4.25C3.88759 5.15625 3.59375 5.45009 3.59375 5.8125C3.59375 6.17491 3.88759 6.46875 4.25 6.46875H4.90625V9.09375H4.25C3.88759 9.09375 3.59375 9.38759 3.59375 9.75C3.59375 10.1124 3.88759 10.4062 4.25 10.4062H4.90625V12.375H4.25C3.16437 12.375 2.28125 13.2581 2.28125 14.3438V15.6562V18.2812V21.5625H0.96875C0.606339 21.5625 0.3125 21.8563 0.3125 22.2188C0.3125 22.5812 0.606339 22.875 0.96875 22.875H2.9375H6.27803C6.59194 24.7342 8.20901 26.1562 10.1562 26.1562C12.1035 26.1562 13.7206 24.7342 14.0345 22.875H27.278C27.5919 24.7342 29.209 26.1562 31.1562 26.1562C33.1035 26.1562 34.7206 24.7342 35.0345 22.875H37.7188C38.8275 22.875 39.6875 21.6404 39.6875 20.5781V18.2812V15.6562V14.0156C39.6875 13.2225 39.1703 12.375 37.7188 12.375ZM6.21875 6.46875H16.0625V9.09375H6.21875V6.46875ZM6.21875 10.4062H16.0625V12.375H6.21875V10.4062ZM3.59375 16.3125H5.5625V17.625H3.59375V16.3125ZM3.59375 18.9375H6.21875C6.58116 18.9375 6.875 18.6437 6.875 18.2812V15.6562C6.875 15.2938 6.58116 15 6.21875 15H3.59375V14.3438C3.59375 13.982 3.88823 13.6875 4.25 13.6875H20V21.5625H14.0345C13.7206 19.7033 12.1035 18.2812 10.1562 18.2812C8.20901 18.2812 6.59194 19.7033 6.27803 21.5625H3.59375V18.9375ZM10.1562 24.8438C8.70885 24.8438 7.53125 23.6662 7.53125 22.2188C7.53125 20.7713 8.70885 19.5938 10.1562 19.5938C11.6037 19.5938 12.7812 20.7713 12.7812 22.2188C12.7812 23.6662 11.6037 24.8438 10.1562 24.8438ZM31.1562 24.8438C29.7088 24.8438 28.5312 23.6662 28.5312 22.2188C28.5312 20.7713 29.7088 19.5938 31.1562 19.5938C32.6037 19.5938 33.7812 20.7713 33.7812 22.2188C33.7812 23.6662 32.6037 24.8438 31.1562 24.8438ZM37.7188 21.5625H35.0345C34.7206 19.7033 33.1035 18.2812 31.1562 18.2812C29.209 18.2812 27.5919 19.7033 27.278 21.5625H21.3125V13.0312V12.375V1.875H27.875C31.1316 1.875 33.7812 4.52467 33.7812 7.78125V13.0312C33.7812 13.3937 34.0751 13.6875 34.4375 13.6875H37.7188C38.375 13.6875 38.375 13.9009 38.375 14.0156V15H36.4062C35.3206 15 34.4375 15.8831 34.4375 16.9688C34.4375 18.0544 35.3206 18.9375 36.4062 18.9375H38.375V20.5781C38.375 21.044 37.9837 21.5625 37.7188 21.5625ZM38.375 17.625H36.4062C36.0445 17.625 35.75 17.3305 35.75 16.9688C35.75 16.607 36.0445 16.3125 36.4062 16.3125H38.375V17.625Z" fill="#D92D20"/>
<path d="M27.875 4.5H23.9375C23.5751 4.5 23.2812 4.79384 23.2812 5.15625V13.0312C23.2812 13.3937 23.5751 13.6875 23.9375 13.6875H31.1562C31.5187 13.6875 31.8125 13.3937 31.8125 13.0312V8.4375C31.8125 6.26624 30.0463 4.5 27.875 4.5ZM30.5 12.375H24.5938V5.8125H27.875C29.3224 5.8125 30.5 6.9901 30.5 8.4375V12.375Z" fill="#D92D20"/>
<path d="M25.25 15H23.2812C22.9188 15 22.625 15.2938 22.625 15.6562C22.625 16.0187 22.9188 16.3125 23.2812 16.3125H25.25C25.6124 16.3125 25.9062 16.0187 25.9062 15.6562C25.9062 15.2938 25.6124 15 25.25 15Z" fill="#D92D20"/>
</svg>
