<?xml version="1.0" encoding="utf-8"?>
<!-- Generator: Adobe Illustrator 24.3.0, SVG Export Plug-In . SVG Version: 6.00 Build 0)  -->
<svg version="1.1" id="Layer_1" xmlns="http://www.w3.org/2000/svg" xmlns:xlink="http://www.w3.org/1999/xlink" x="0px" y="0px"
	 viewBox="0 0 32 32" style="enable-background:new 0 0 32 32;" xml:space="preserve">
<style type="text/css">
	.st0{fill-rule:evenodd;clip-rule:evenodd;fill:#D92D20;}
</style>
<path class="st0" d="M22,10.8C22,10.8,22,10.7,22,10.8c0-1-0.4-1.8-1-2.4c-0.3,0.9-0.9,1.5-1.7,1.5c-1.1,0-1.9-1.1-1.9-2.5
	c0-1.4,0.8-2.5,1.9-2.5c1,0,1.8,1,1.9,2.3c0.8,0.5,1.4,1.3,1.6,2.2c0.4-0.3,0.9-0.6,1.5-0.6h1.2c0.7,0,1.2,0.5,1.2,1.2v2.3
	c0,0.7-0.5,1.2-1.2,1.2h-1.1l2,3.8c2.8-0.4,5.6,1.8,5.6,4.8c0,2.7-2.2,4.9-4.9,4.9c-4.4,0-6.5-5.4-3.4-8.4L22.9,17
	c-0.6,0-1.3,0-1.9,0c0.1,0.6,0.3,1.6,0.4,2.6c0.3,2.7,0.1,5.8-2.2,5.9L12.7,26c0,0,0,0,0,0c-0.6,0-0.7-0.9,0-1l6.6-0.5
	c2.2-0.1,1.2-5.7,0.8-7.6c-3.5,0-7,0-10.5,0.2c0,0,0,0,0,0c-0.1,0-0.2,0-0.6-0.1l-0.8,1.4c0.7,0.6,1.2,1.3,1.5,2.2h3.7v-2.2
	c0-0.3,0.3-0.5,0.6-0.5l5.5,0.7c0.3,0,0.4,0.3,0.4,0.6l-0.6,4c0,0.2-0.2,0.4-0.5,0.4h-1.6h-1.6h-1.7h0H9.5c-0.7,1.9-2.5,3.3-4.6,3.3
	c-2.7,0-4.9-2.2-4.9-4.9c0-2.9,2.5-5.1,5.3-4.9L6,16.2c-0.6-0.2-1.3-0.4-2.1-0.7c0,0-0.1,0-0.1-0.1c-2.2-1.3-3.1-2.1-2.8-2.9
	c0.3-0.7,1.4-1,3.7-0.8c1.6,0.1,3,0.3,3.1,0.4c2.9,1.7,6,1.5,6.7,1.4c1.6-1.7,4-2.5,6.3-1.8l1-0.3c0-0.1,0-0.1,0-0.2
	C22,11.1,22,10.9,22,10.8z M16.6,22.8l0.4-2.5c0.1-0.7,1.1-0.5,1,0.1l-0.4,2.4h0.6l0.4-3.1L14.2,19v2.1v1.6h0.8l0.4-2.5
	c0.1-0.7,1.1-0.5,1,0.1l-0.4,2.4H16.6z M23.1,13.2c-0.3-0.2-0.6-0.5-0.8-0.9l-0.6,0.2l3.8,7.3c0.3-0.2,0.6-0.3,0.9-0.4l-0.7-1.3
	c0,0,0-0.1-0.1-0.1L23.1,13.2z M24.3,9.9c-0.7,0-1.3,0.6-1.3,1.4c0,0.5,0.3,0.9,0.7,1.2c0,0,0.1,0,0.1,0.1c0.2,0.1,0.4,0.1,0.5,0.1
	h1.2c0.1,0,0.2-0.1,0.2-0.2v-2.3c0-0.1-0.1-0.2-0.2-0.2H24.3z M24.8,20.7l-0.5-1c-2.2,2.4-0.6,6.5,2.9,6.5c2.1,0,3.9-1.7,3.9-3.9
	c0-2.3-1.9-4-4.1-3.9l0.6,1.1c1.4,0.2,2.5,1.4,2.5,2.8c0,1.6-1.3,2.8-2.8,2.8c-1.6,0-2.8-1.3-2.8-2.8C24.3,21.7,24.5,21.1,24.8,20.7
	z M22.3,16l-1.7-3.3c-2-0.5-4,0.1-5.3,1.6c0,0.1-0.1,0.1-0.1,0.1c-0.4,0.5-0.7,1-0.9,1.6c2.2,0,4.3,0,6.4,0H22.3z M27.1,20.4
	c-1,0-1.8,0.8-1.8,1.8c0,1,0.8,1.8,1.8,1.8c1,0,1.8-0.8,1.8-1.8C28.9,21.2,28.1,20.4,27.1,20.4z M8.8,22c0-0.3-0.1-0.6-0.1-0.8
	c-0.2-0.7-0.5-1.3-1.1-1.9l-0.6,1c0.4,0.5,0.7,1.2,0.7,1.9c0,1.6-1.3,2.8-2.8,2.8c-1.6,0-2.8-1.3-2.8-2.8c0-1.3,0.8-2.3,2-2.7
	l0.7-1.2C2.7,18.4,1,20.1,1,22.2c0,2.1,1.8,3.9,3.9,3.9C7.4,26.1,8.9,24.1,8.8,22z M9.7,22.8h3.5v-1.1H9.7c0,0.2,0,0.4,0,0.5
	C9.8,22.4,9.8,22.6,9.7,22.8z M6.2,19.7l1.7-2.9c-0.3-0.1-0.6-0.2-1-0.3l-1.7,2.9C5.6,19.5,5.9,19.6,6.2,19.7z M8.8,16
	C8.8,16,8.8,16,8.8,16c0.4,0.1,0.6,0.2,0.7,0.2c1.2-0.1,2.5-0.1,3.7-0.2c0.1-0.5,0.4-1,0.6-1.5c-1.4,0-3.9-0.1-6.3-1.5
	C7.1,13,6,12.8,4.9,12.8c-2.1-0.1-2.7,0.1-2.9,0.1c0.1,0.2,0.5,0.7,2.3,1.7c0.7,0.2,1.7,0.5,2.6,0.8h0C7.6,15.7,8.2,15.9,8.8,16z
	 M4.9,20.4c-1,0-1.8,0.8-1.8,1.8c0,1,0.8,1.8,1.8,1.8c1,0,1.8-0.8,1.8-1.8C6.7,21.2,5.9,20.4,4.9,20.4z M19.3,5.9
	c-0.4,0-0.9,0.6-0.9,1.5c0,0.9,0.5,1.5,0.9,1.5c0.4,0,0.9-0.6,0.9-1.5C20.2,6.5,19.7,5.9,19.3,5.9z"/>
</svg>
