<?xml version="1.0" encoding="utf-8"?>
<!-- Generator: Adobe Illustrator 24.3.0, SVG Export Plug-In . SVG Version: 6.00 Build 0)  -->
<svg version="1.1" id="Layer_1" xmlns="http://www.w3.org/2000/svg" xmlns:xlink="http://www.w3.org/1999/xlink" x="0px" y="0px"
	 viewBox="0 0 32 32" style="enable-background:new 0 0 32 32;" xml:space="preserve">
<style type="text/css">
	.st0{fill:#D92D20;}
</style>
<g>
	<path class="st0" d="M30.1,15.3l-4.6-1.6l-2-5.1c-0.2-0.9-1-1.6-1.9-1.6H2.3c-1.1,0-2,0.9-2,2v11.5c0,1.1,0.9,2,2,2h1.5
		c0.4,1.4,1.7,2.4,3.2,2.4s2.8-1,3.2-2.4h10c0.4,1.4,1.7,2.4,3.2,2.4c1.5,0,2.8-1,3.2-2.4h3.1c1.1,0,1.9-0.9,1.9-1.9
		c0-0.1,0-3.5,0-3.3C31.6,16.3,31,15.5,30.1,15.3z M7,23.9c-1.3,0-2.4-1.1-2.4-2.4s1.1-2.4,2.4-2.4c1.3,0,2.4,1.1,2.4,2.4
		C9.4,22.9,8.3,23.9,7,23.9z M23.4,23.9c-1.3,0-2.4-1.1-2.4-2.4s1.1-2.4,2.4-2.4c1.3,0,2.4,1.1,2.4,2.4
		C25.8,22.9,24.7,23.9,23.4,23.9z M29.7,21.5h-3c0-1.8-1.5-3.3-3.3-3.3c-1.8,0-3.3,1.5-3.3,3.3h-9.7c0-1.8-1.5-3.3-3.3-3.3
		s-3.3,1.5-3.3,3.3H2.3c-0.5,0-1-0.4-1-1V9.1c0-0.5,0.4-1,1-1h19.2c0.5,0,0.9,0.3,1,0.8c0,0,0,0.1,0,0.1l2.1,5.3
		c0.1,0.1,0.2,0.2,0.3,0.3l4.9,1.7c0.5,0.2,0.9,0.4,0.9,1v0h-2c-0.3,0-0.5,0.2-0.5,0.5v2.2c0,0.3,0.2,0.5,0.5,0.5h2v0.2
		C30.6,21.1,30.2,21.5,29.7,21.5z M30.6,19.4h-1.6v-1.2h1.6V19.4z"/>
	<path class="st0" d="M20.3,9.2c-0.1-0.2-0.3-0.3-0.4-0.3H15c-0.3,0-0.5,0.2-0.5,0.5v4.7c0,0.3,0.2,0.5,0.5,0.5h6.9
		c0.4,0,0.6-0.4,0.4-0.7L20.3,9.2z M15.5,13.6V9.9h4l1.7,3.7H15.5z"/>
</g>
</svg>
