<?xml version="1.0" encoding="utf-8"?>
<!-- Generator: Adobe Illustrator 24.3.0, SVG Export Plug-In . SVG Version: 6.00 Build 0)  -->
<svg version="1.1" id="Layer_1" xmlns="http://www.w3.org/2000/svg" xmlns:xlink="http://www.w3.org/1999/xlink" x="0px" y="0px"
	 viewBox="0 0 32 32" style="enable-background:new 0 0 32 32;" xml:space="preserve">
<style type="text/css">
	.st0{fill-rule:evenodd;clip-rule:evenodd;fill:#D92D20;}
</style>
<path class="st0" d="M6.1,26H4c-0.9,0-1.7-0.4-2.4-1c-0.6-0.6-1-1.5-1-2.4c0-4.1,0-11.9,0-16c0-0.9,0.4-1.7,1-2.4
	c0.6-0.6,1.5-1,2.4-1h13.3c0.9,0,1.7,0.4,2.4,1c0.6,0.6,1,1.5,1,2.4v2H25c1.3,0,2.4,0.7,3,1.8c1,2,2.6,5.3,3.1,6.2
	c0.1,0.3,0.2,0.6,0.2,0.9V24c0,1.1-0.9,2-2,2h-0.7c-0.3,1.5-1.7,2.7-3.3,2.7c-1.6,0-3-1.1-3.3-2.7h-9.5c-0.3,1.5-1.7,2.7-3.3,2.7
	C7.7,28.7,6.4,27.5,6.1,26z M9.3,23.3c1.1,0,2,0.9,2,2s-0.9,2-2,2c-1.1,0-2-0.9-2-2S8.2,23.3,9.3,23.3z M25.3,23.3c1.1,0,2,0.9,2,2
	s-0.9,2-2,2s-2-0.9-2-2S24.2,23.3,25.3,23.3z M12.6,24.7h6.7v-4H2v2c0,0.5,0.2,1,0.6,1.4C3,24.5,3.5,24.7,4,24.7h2.1
	C6.4,23.1,7.7,22,9.3,22C10.9,22,12.3,23.1,12.6,24.7z M28.6,24.7h0.7c0.4,0,0.7-0.3,0.7-0.7v-3.3h-4.7c-0.9,0-1.7-0.4-2.4-1
	c-0.6-0.6-1-1.5-1-2.4v-4c0-1.1,0.9-2,2-2h2.9l-0.1-0.2c-0.3-0.7-1-1.1-1.8-1.1h-4.4v14.7h1.4c0.3-1.5,1.7-2.7,3.3-2.7
	C26.9,22,28.3,23.1,28.6,24.7z M27.6,12.7H24c-0.4,0-0.7,0.3-0.7,0.7v4c0,0.5,0.2,1,0.6,1.4c0.4,0.4,0.9,0.6,1.4,0.6H30v-1.7
	c0-0.1,0-0.2-0.1-0.3L27.6,12.7z M19.3,19.3H2V6.7c0-0.5,0.2-1,0.6-1.4C3,4.9,3.5,4.7,4,4.7h13.3c0.5,0,1,0.2,1.4,0.6
	c0.4,0.4,0.6,0.9,0.6,1.4V19.3z"/>
</svg>
