<?xml version="1.0" encoding="utf-8"?>
<!-- Generator: Adobe Illustrator 24.3.0, SVG Export Plug-In . SVG Version: 6.00 Build 0)  -->
<svg version="1.1" id="Layer_1" xmlns="http://www.w3.org/2000/svg" xmlns:xlink="http://www.w3.org/1999/xlink" x="0px" y="0px"
	 viewBox="0 0 32 32" style="enable-background:new 0 0 32 32;" xml:space="preserve">
<style type="text/css">
	.st0{fill:#D92D20;}
</style>
<g>
	<path class="st0" d="M0.6,23.3h21c0.3,0,0.5-0.2,0.5-0.5c0-0.3-0.2-0.5-0.5-0.5H1c-0.1-1.4-0.1-5.7,3-8.1c0.2-0.2,0.3-0.5,0.1-0.7
		c-0.2-0.2-0.5-0.3-0.7-0.1c-4.2,3.2-3.4,9.2-3.4,9.4C0.1,23.1,0.3,23.3,0.6,23.3z"/>
	<path class="st0" d="M3.3,14.3h10.8c0.6,0,1-0.5,1-1v-1.4c0-0.6-0.5-1-1-1H3.3c-0.6,0-1,0.5-1,1v1.4C2.3,13.9,2.7,14.3,3.3,14.3z
		 M14.1,11.9C14.1,11.9,14.2,11.9,14.1,11.9l0.1,1.4c0,0,0,0.1-0.1,0.1H3.3c0,0-0.1,0-0.1-0.1v-1.3c0,0,0-0.1,0.1-0.1H14.1z"/>
	<path class="st0" d="M26.1,16.6C26.1,16.6,26.1,16.6,26.1,16.6c0.3,0,0.5-0.3,0.5-0.5c-0.3-2.8-1.2-5.8-2.5-8.7
		c-0.1-0.2-0.4-0.3-0.6-0.2c-0.2,0.1-0.4,0.4-0.2,0.6c1.3,2.8,2.1,5.7,2.4,8.4C25.6,16.4,25.8,16.6,26.1,16.6z"/>
	<path class="st0" d="M16.7,20.1c0.6,0,1.3-0.2,1.9-0.6c1.7-1,4.3-4,3.2-12.2c0-0.3-0.3-0.4-0.5-0.4c-0.3,0-0.4,0.3-0.4,0.5
		c1.1,7.9-1.6,10.5-2.8,11.3c-0.8,0.5-1.6,0.6-2.4,0.2c-0.9-0.4-1.5-1.4-1.6-2.5c-0.1-0.8,0.1-1.7,0.4-2.2c0.1-0.2,0.1-0.5-0.1-0.7
		c-0.2-0.1-0.5-0.1-0.7,0.1c-0.5,0.8-0.6,2.1-0.6,2.9c0.1,1.5,1,2.7,2.1,3.3C15.7,20,16.2,20.1,16.7,20.1z"/>
	<path class="st0" d="M27.1,27.6c2.6,0,4.8-2.1,4.8-4.8c0-1.1-0.4-2.2-1.1-3c-0.2-0.2-0.5-0.2-0.7-0.1c-0.2,0.2-0.2,0.5-0.1,0.7
		c0.6,0.7,0.9,1.5,0.9,2.4c0,2.1-1.7,3.8-3.8,3.8s-3.8-1.7-3.8-3.8c0-0.1,0-0.2,0-0.3c0-0.3-0.2-0.5-0.4-0.5c-0.3,0-0.5,0.2-0.5,0.4
		c0,0.1,0,0.3,0,0.4C22.3,25.5,24.4,27.6,27.1,27.6z"/>
	<path class="st0" d="M27.1,25.3c1.3,0,2.4-1.1,2.4-2.4c0-1.1-0.7-2-1.7-2.3c-0.3-0.1-0.5,0.1-0.6,0.3c-0.1,0.3,0.1,0.5,0.3,0.6
		c0.6,0.2,1,0.8,1,1.4c0,0.8-0.7,1.5-1.5,1.5c-0.8,0-1.5-0.7-1.5-1.5c0-0.3,0.1-0.7,0.3-0.9c0.2-0.2,0.1-0.5-0.1-0.7
		c-0.2-0.2-0.5-0.1-0.7,0.1c-0.3,0.4-0.5,1-0.5,1.5C24.6,24.2,25.7,25.3,27.1,25.3z"/>
	<path class="st0" d="M7.4,27.6c2.6,0,4.8-2.2,4.8-4.8c0-0.3-0.2-0.5-0.5-0.5c-0.3,0-0.5,0.2-0.5,0.5c0,2.1-1.7,3.8-3.8,3.8
		s-3.8-1.7-3.8-3.8c0-0.3-0.2-0.5-0.5-0.5s-0.5,0.2-0.5,0.5C2.6,25.5,4.7,27.6,7.4,27.6z"/>
	<path class="st0" d="M7.4,25.3c1.3,0,2.4-1.1,2.4-2.4c0-0.3-0.2-0.5-0.5-0.5c-0.3,0-0.5,0.2-0.5,0.5c0,0.8-0.7,1.5-1.5,1.5
		s-1.5-0.7-1.5-1.5c0-0.3-0.2-0.5-0.5-0.5s-0.5,0.2-0.5,0.5C4.9,24.2,6,25.3,7.4,25.3z"/>
	<path class="st0" d="M24.7,8.5h1.3c0.3,0,0.5-0.2,0.5-0.5V4.9c0-0.3-0.2-0.5-0.5-0.5h-1.3c-1.1,0-2,0.9-2,2v0.2
		C22.7,7.6,23.6,8.5,24.7,8.5z M25.6,7.6h-0.9c-0.6,0-1-0.5-1-1V6.4c0-0.6,0.5-1,1-1h0.9V7.6z"/>
	<path class="st0" d="M18.6,7.9h4.6c0.3,0,0.5-0.2,0.5-0.5V5.5c0-0.3-0.2-0.5-0.5-0.5h-4.6c-0.3,0-0.5,0.2-0.5,0.5v1.8
		C18.1,7.6,18.4,7.9,18.6,7.9z M22.7,6.9h-3.6V6h3.6V6.9z"/>
	<path class="st0" d="M21.6,23.3c0,0,0.1,0,0.1,0l9.9-3.1c0.3-0.1,0.4-0.3,0.3-0.6c-0.4-1.4-1.4-2.6-2.8-3.3s-2.9-0.9-4.3-0.4
		c-3,0.9-4.7,4.1-3.7,7.1c0,0.1,0.1,0.2,0.2,0.3C21.4,23.3,21.5,23.3,21.6,23.3z M30.9,19.4l-9,2.8c-0.5-2.3,0.9-4.7,3.2-5.4
		c1.2-0.4,2.5-0.3,3.6,0.3C29.7,17.6,30.5,18.5,30.9,19.4z"/>
	<path class="st0" d="M13.3,23.3c0,0,0.1,0,0.1,0c0.3-0.1,0.4-0.3,0.4-0.6c-0.8-3.5-2.5-4.9-3.8-5.5c-1.8-0.8-4.1-0.5-6.2,0.8
		c-2.6,1.6-3.7,4.5-3.7,4.6c-0.1,0.3,0,0.5,0.3,0.6c0.2,0.1,0.5,0,0.6-0.3c0,0,1-2.7,3.3-4.1c1.8-1.1,3.8-1.4,5.3-0.7
		c1.6,0.7,2.7,2.3,3.2,4.8C12.9,23.2,13.1,23.3,13.3,23.3z"/>
</g>
</svg>
