<?xml version="1.0" encoding="utf-8"?>
<!-- Generator: Adobe Illustrator 24.3.0, SVG Export Plug-In . SVG Version: 6.00 Build 0)  -->
<svg version="1.1" id="Layer_1" xmlns="http://www.w3.org/2000/svg" xmlns:xlink="http://www.w3.org/1999/xlink" x="0px" y="0px"
	 viewBox="0 0 32 32" style="enable-background:new 0 0 32 32;" xml:space="preserve">
<style type="text/css">
	.st0{clip-path:url(#SVGID_2_);}
	.st1{fill:none;stroke:#D92D20;stroke-linecap:round;stroke-linejoin:round;stroke-miterlimit:10;}
</style>
<g>
	<defs>
		<rect id="SVGID_1_" width="32" height="32"/>
	</defs>
	<clipPath id="SVGID_2_">
		<use xlink:href="#SVGID_1_"  style="overflow:visible;"/>
	</clipPath>
	<g class="st0">
		<path class="st1" d="M29,25.7c-1.2,0-2.2-1-2.2-2.2c0-1.2,1-2.2,2.2-2.2c1.2,0,2.2,1,2.2,2.2C31.3,24.6,30.3,25.7,29,25.7z"/>
		<path class="st1" d="M27.9,16.9c0-0.1,0-0.1,0-0.2c0,0,0,0,0-0.1c0-0.1-0.1-0.2-0.1-0.3s0-0.1,0-0.2v-0.1c0-0.1,0-0.1,0-0.2
			c0-0.1,0-0.1,0-0.1c0-0.1-0.1-0.2-0.1-0.2c0-0.2-0.1-0.4-0.2-0.6c-0.1-0.2-0.1-0.3-0.2-0.4"/>
		<path class="st1" d="M27.8,16L26,15.6l-2.3-5.1L23.9,9"/>
		<path class="st1" d="M6.4,22.4l-2.2-0.8L2.5,21c-1-0.4-1.8-1.3-1.8-2.4l-0.1-2.1c0-0.5,0.1-0.9,0.2-1.4l2.7-5.8
			c0.3-0.8,1-1.3,1.8-1.5l5.3-1.3c0.4-0.1,0.8-0.1,1.2,0l3.4,0.8c0.1,0,0.2,0.1,0.4,0.1l6.1,0.4c0.2,0,0.5,0.1,0.7,0.2
			c0.5,0.2,0.9,0.6,1.4,1.1c1.1,1.3,2.3,3.2,3.2,5c0.1,0.2,0.2,0.2,0.2,0.4c0,0.1,0.1,0.2,0.1,0.4c0.1,0.2,0.1,0.4,0.2,0.6
			c0,0.1,0,0.1,0,0.2s0,0.1,0,0.1c0.1,0.1,0.1,0.1,0.1,0.2v0.1c0,0.1,0,0.2,0,0.2c0,0.1,0,0.2,0,0.3v0.1c0,0.1,0.1,0.1,0.1,0.2
			c0,0.3,0,0.6,0,0.9V18v3.5"/>
		<path class="st1" d="M11.1,22.7H27"/>
		<path class="st1" d="M30.5,21.7h0.4c0.4,0,0.6-0.2,0.6-0.6c0-0.8-0.4-1.4-1-1.8L28,18"/>
		<path class="st1" d="M12.1,20.2l-1.2-3.8l-2.1-2.5c-0.4-0.4-0.4-1.1-0.2-1.6l0.9-1.9c0.2-0.5,0.7-0.9,1.3-0.9H21
			c0.6,0,1.2,0.4,1.4,1l1.4,4.2c0.1,0.1,0.1,0.3,0.1,0.5v4.5c0,0.9-0.6,1.5-1.5,1.5h-8.8C12.9,21.2,12.3,20.8,12.1,20.2z"/>
		<path class="st1" d="M10.9,16.5h-7c-0.4,0-0.8-0.1-1.1-0.4c-0.3-0.3-0.7-0.5-1.1-0.5h-1"/>
		<path class="st1" d="M16.6,9.6v11.6"/>
		<path class="st1" d="M6.3,23.2c0,1.4,1.1,2.5,2.5,2.5c1.3,0,2.4-1.1,2.4-2.5s-1.1-2.5-2.4-2.5c-0.8,0-1.4,0.4-1.9,0.9
			c-0.2,0.2-0.4,0.6-0.5,0.9C6.3,22.7,6.3,22.9,6.3,23.2z"/>
		<path class="st1" d="M22.5,7.9c0,0,0.4,1.3-0.9,1.8"/>
		<path class="st1" d="M16.6,21.2h3.9v-3c0-0.9-0.7-1.5-1.5-1.5h-2.4"/>
	</g>
</g>
</svg>
