<svg width="20" height="20" viewBox="0 0 20 20" fill="none" xmlns="http://www.w3.org/2000/svg">
<path d="M12.5 18.9582H7.5C2.975 18.9582 1.04167 17.0248 1.04167 12.4998V7.49984C1.04167 2.97484 2.975 1.0415 7.5 1.0415H9.16667C9.50833 1.0415 9.79167 1.32484 9.79167 1.6665C9.79167 2.00817 9.50833 2.2915 9.16667 2.2915H7.5C3.65833 2.2915 2.29167 3.65817 2.29167 7.49984V12.4998C2.29167 16.3415 3.65833 17.7082 7.5 17.7082H12.5C16.3417 17.7082 17.7083 16.3415 17.7083 12.4998V10.8332C17.7083 10.4915 17.9917 10.2082 18.3333 10.2082C18.675 10.2082 18.9583 10.4915 18.9583 10.8332V12.4998C18.9583 17.0248 17.025 18.9582 12.5 18.9582Z" fill="#0080FC"/>
<path d="M7.08319 14.7415C6.57486 14.7415 6.10819 14.5581 5.76653 14.2248C5.35819 13.8165 5.18319 13.2248 5.27486 12.5998L5.6332 10.0915C5.69986 9.60814 6.01653 8.98314 6.35819 8.64147L12.9249 2.0748C14.5832 0.416471 16.2665 0.416471 17.9249 2.0748C18.8332 2.98314 19.2415 3.90814 19.1582 4.83314C19.0832 5.58314 18.6832 6.31647 17.9249 7.06647L11.3582 13.6331C11.0165 13.9748 10.3915 14.2915 9.9082 14.3581L7.39986 14.7165C7.29153 14.7415 7.18319 14.7415 7.08319 14.7415ZM13.8082 2.95814L7.24153 9.5248C7.08319 9.68314 6.89986 10.0498 6.86653 10.2665L6.50819 12.7748C6.47486 13.0165 6.52486 13.2165 6.64986 13.3415C6.77486 13.4665 6.97486 13.5165 7.21653 13.4831L9.72486 13.1248C9.94153 13.0915 10.3165 12.9081 10.4665 12.7498L17.0332 6.18314C17.5749 5.64147 17.8582 5.15814 17.8999 4.70814C17.9499 4.16647 17.6665 3.59147 17.0332 2.9498C15.6999 1.61647 14.7832 1.99147 13.8082 2.95814Z" fill="#0080FC"/>
<path d="M16.5417 8.19173C16.4834 8.19173 16.425 8.1834 16.375 8.16673C14.1834 7.55006 12.4417 5.8084 11.825 3.61673C11.7334 3.2834 11.925 2.94173 12.2584 2.84173C12.5917 2.75006 12.9334 2.94173 13.025 3.27506C13.525 5.05006 14.9334 6.4584 16.7084 6.9584C17.0417 7.05006 17.2334 7.40006 17.1417 7.7334C17.0667 8.01673 16.8167 8.19173 16.5417 8.19173Z" fill="#0080FC"/>
</svg>
