<svg width="20" height="20" viewBox="0 0 20 20" fill="none" xmlns="http://www.w3.org/2000/svg">
<path d="M10.0181 1.75935C10.0407 1.9823 9.97393 2.20512 9.83235 2.37883C9.69078 2.55253 9.48602 2.6629 9.26309 2.68565C7.88528 2.82895 6.57625 3.35973 5.48768 4.21647C4.3991 5.07322 3.57553 6.22089 3.11236 7.5265C2.6492 8.83212 2.5654 10.2423 2.87068 11.5935C3.17596 12.9448 3.85783 14.182 4.83728 15.1616C5.81673 16.1413 7.05368 16.8234 8.40483 17.1289C9.75598 17.4343 11.166 17.3507 12.4716 16.8877C13.7772 16.4247 14.9249 15.6012 15.7817 14.5127C16.6386 13.4242 17.1695 12.1151 17.313 10.7372C17.3227 10.6256 17.3545 10.517 17.4066 10.4177C17.4587 10.3185 17.53 10.2306 17.6164 10.1592C17.7028 10.0878 17.8025 10.0343 17.9097 10.0018C18.017 9.96924 18.1296 9.95839 18.2411 9.96982C18.3526 9.98125 18.4607 10.0147 18.5591 10.0684C18.6575 10.122 18.7443 10.1946 18.8144 10.2821C18.8845 10.3695 18.9364 10.4701 18.9673 10.5778C18.9982 10.6855 19.0073 10.7983 18.9942 10.9096C18.8181 12.6056 18.1652 14.2169 17.1109 15.5569C16.0567 16.8969 14.6443 17.9107 13.0375 18.4807C11.4307 19.0508 9.69529 19.1539 8.03232 18.778C6.36935 18.4021 4.84694 17.5626 3.64152 16.3568C2.4361 15.1511 1.59702 13.6283 1.22152 11.9652C0.846021 10.302 0.949477 8.56647 1.5199 6.95969C2.09032 5.35291 3.10436 3.94069 4.44449 2.88667C5.78462 1.83265 7.39597 1.17999 9.09182 1.00434C9.31475 0.981667 9.53756 1.04847 9.71125 1.19005C9.88495 1.33164 9.9953 1.53641 10.0181 1.75935ZM11.1674 1.68498C11.1932 1.5769 11.2401 1.47497 11.3053 1.38502C11.3705 1.29507 11.4529 1.21887 11.5476 1.16078C11.6423 1.10269 11.7475 1.06385 11.8573 1.04648C11.967 1.02911 12.0791 1.03355 12.1872 1.05956C12.6138 1.16173 13.0281 1.2932 13.43 1.45397C13.6325 1.54082 13.7931 1.70333 13.8775 1.90685C13.9619 2.11037 13.9635 2.33882 13.882 2.54351C13.8004 2.7482 13.6422 2.91295 13.4409 3.00265C13.2397 3.09235 13.0114 3.09991 12.8046 3.02371C12.4779 2.89375 12.1406 2.78707 11.7928 2.70368C11.575 2.6513 11.3869 2.51457 11.2698 2.32355C11.1527 2.13253 11.1152 1.90285 11.1674 1.68498ZM18.5457 6.56776C18.4628 6.35945 18.3005 6.19262 18.0946 6.10397C17.8886 6.01531 17.6559 6.0121 17.4476 6.09504C17.2393 6.17797 17.0725 6.34026 16.9839 6.54621C16.8952 6.75215 16.892 6.98487 16.9749 7.19318C17.1049 7.52073 17.2119 7.85805 17.2961 8.20513C17.3484 8.42315 17.4851 8.61147 17.6763 8.72865C17.7709 8.78667 17.8761 8.82549 17.9857 8.84287C18.0953 8.86026 18.2073 8.85588 18.3153 8.82998C18.4232 8.80409 18.525 8.75718 18.6148 8.69194C18.7047 8.6267 18.7807 8.54441 18.8388 8.44976C18.8968 8.35511 18.9356 8.24997 18.953 8.14032C18.9704 8.03067 18.966 7.91867 18.9401 7.81072C18.8388 7.38742 18.707 6.97202 18.5457 6.56776ZM14.8554 3.13302C15.0026 2.96404 15.2109 2.86044 15.4345 2.84502C15.658 2.82959 15.8786 2.9036 16.0476 3.05076C16.3939 3.35201 16.7162 3.67768 17.0144 4.02777C17.1596 4.19857 17.2311 4.42008 17.213 4.64356C17.1949 4.86705 17.0888 5.0742 16.918 5.21945C16.7472 5.3647 16.5258 5.43615 16.3023 5.41808C16.0788 5.40001 15.8717 5.2939 15.7264 5.1231C15.4828 4.83877 15.2192 4.57215 14.9377 4.32527C14.7687 4.17806 14.6651 3.96976 14.6497 3.74618C14.6343 3.5226 14.7083 3.30205 14.8554 3.13302ZM10.0214 6.31534C10.0214 6.09119 9.9324 5.87622 9.77391 5.71772C9.61542 5.55922 9.40047 5.47018 9.17633 5.47018C8.9522 5.47018 8.73724 5.55922 8.57875 5.71772C8.42027 5.87622 8.33123 6.09119 8.33123 6.31534V10.8229C8.33123 11.2905 8.70983 11.668 9.17633 11.668H12.5567C12.7809 11.668 12.9958 11.579 13.1543 11.4205C13.3128 11.262 13.4018 11.047 13.4018 10.8229C13.4018 10.5987 13.3128 10.3838 13.1543 10.2253C12.9958 10.0668 12.7809 9.97771 12.5567 9.97771H10.0214V6.31534Z" fill="white"/>
</svg>
