<svg width="20" height="20" viewBox="0 0 20 20" fill="none" xmlns="http://www.w3.org/2000/svg">
<path d="M9.99699 2.70705C10.0171 2.9049 9.95783 3.10263 9.83219 3.25678C9.70654 3.41093 9.52483 3.50886 9.32699 3.52905C8.10422 3.65622 6.94251 4.12723 5.97644 4.88751C5.01036 5.64779 4.27946 6.66623 3.86842 7.82484C3.45738 8.98345 3.38301 10.2348 3.65394 11.4339C3.92487 12.6331 4.53 13.7309 5.39923 14.6003C6.26846 15.4696 7.36621 16.0749 8.56531 16.346C9.7644 16.6171 11.0158 16.5429 12.1744 16.132C13.3331 15.7211 14.3516 14.9904 15.1121 14.0244C15.8725 13.0584 16.3437 11.8968 16.471 10.6741C16.4796 10.575 16.5079 10.4786 16.5541 10.3905C16.6003 10.3025 16.6636 10.2245 16.7403 10.1611C16.8169 10.0977 16.9054 10.0502 17.0006 10.0214C17.0958 9.99254 17.1957 9.9829 17.2947 9.99305C17.3936 10.0032 17.4895 10.0329 17.5769 10.0805C17.6642 10.1281 17.7412 10.1925 17.8034 10.2701C17.8656 10.3477 17.9118 10.437 17.9392 10.5326C17.9665 10.6282 17.9746 10.7283 17.963 10.8271C17.8068 12.332 17.2273 13.7619 16.2917 14.951C15.3561 16.1401 14.1026 17.0398 12.6767 17.5457C11.2507 18.0516 9.71055 18.143 8.23472 17.8095C6.75889 17.4759 5.40781 16.7309 4.33804 15.6609C3.26826 14.5909 2.52361 13.2396 2.19037 11.7637C1.85712 10.2878 1.94894 8.74771 2.45517 7.32185C2.9614 5.89599 3.86132 4.64278 5.05064 3.70744C6.23996 2.7721 7.66998 2.19293 9.17499 2.03705C9.37283 2.01693 9.57057 2.07621 9.72472 2.20186C9.87886 2.3275 9.9768 2.50922 9.99699 2.70705ZM11.017 2.64105C11.0399 2.54514 11.0815 2.45469 11.1394 2.37487C11.1973 2.29505 11.2703 2.22743 11.3544 2.17588C11.4385 2.12433 11.5319 2.08986 11.6292 2.07445C11.7266 2.05904 11.8261 2.06298 11.922 2.08605C12.3007 2.17672 12.6683 2.29339 13.025 2.43605C13.2047 2.51313 13.3472 2.65734 13.4221 2.83794C13.497 3.01855 13.4985 3.22127 13.4261 3.40292C13.3537 3.58456 13.2133 3.73076 13.0347 3.81036C12.8561 3.88996 12.6535 3.89667 12.47 3.82905C12.18 3.71372 11.8807 3.61905 11.572 3.54505C11.3787 3.49857 11.2118 3.37724 11.1079 3.20773C11.004 3.03822 10.9707 2.83439 11.017 2.64105ZM17.565 6.97405C17.4914 6.7892 17.3474 6.64115 17.1646 6.56248C16.9819 6.48381 16.7753 6.48096 16.5905 6.55455C16.4056 6.62815 16.2576 6.77217 16.1789 6.95492C16.1002 7.13768 16.0974 7.3442 16.171 7.52905C16.2863 7.81972 16.3813 8.11905 16.456 8.42705C16.5024 8.62053 16.6238 8.78764 16.7934 8.89163C16.8774 8.94312 16.9707 8.97756 17.068 8.99299C17.1653 9.00842 17.2647 9.00453 17.3605 8.98155C17.4563 8.95857 17.5466 8.91695 17.6263 8.85905C17.706 8.80116 17.7736 8.72813 17.8251 8.64414C17.8766 8.56015 17.911 8.46684 17.9264 8.36954C17.9419 8.27224 17.938 8.17285 17.915 8.07705C17.8251 7.70142 17.7081 7.33279 17.565 6.97405ZM14.29 3.92605C14.4206 3.7761 14.6055 3.68417 14.8039 3.67048C15.0023 3.65679 15.198 3.72246 15.348 3.85305C15.6553 4.12039 15.9413 4.40939 16.206 4.72005C16.3349 4.87162 16.3983 5.06819 16.3823 5.26651C16.3662 5.46483 16.2721 5.64866 16.1205 5.77755C15.9689 5.90645 15.7724 5.96985 15.574 5.95382C15.3757 5.93778 15.1919 5.84362 15.063 5.69205C14.8468 5.43974 14.6128 5.20314 14.363 4.98405C14.213 4.85342 14.1211 4.66857 14.1074 4.47017C14.0937 4.27176 14.1594 4.07605 14.29 3.92605ZM9.99999 6.75005C9.99999 6.55114 9.92097 6.36038 9.78032 6.21972C9.63967 6.07907 9.4489 6.00005 9.24999 6.00005C9.05108 6.00005 8.86031 6.07907 8.71966 6.21972C8.57901 6.36038 8.49999 6.55114 8.49999 6.75005V10.7501C8.49999 11.1651 8.83599 11.5001 9.24999 11.5001H12.25C12.4489 11.5001 12.6397 11.421 12.7803 11.2804C12.921 11.1397 13 10.949 13 10.7501C13 10.5511 12.921 10.3604 12.7803 10.2197C12.6397 10.0791 12.4489 10.0001 12.25 10.0001H9.99999V6.75005Z" fill="#667085"/>
</svg>
