<svg width="121" height="32" viewBox="0 0 121 32" fill="none" xmlns="http://www.w3.org/2000/svg">
<path fill-rule="evenodd" clip-rule="evenodd" d="M22.0083 10.7792C22.0083 10.7604 21.9895 10.7229 21.9895 10.6854C21.9895 9.80434 21.6333 8.96076 20.996 8.37962C20.7148 9.2607 20.0586 9.87933 19.2713 9.87933C18.2027 9.87933 17.3779 8.77329 17.3779 7.38606C17.3779 5.98009 18.2027 4.87405 19.2713 4.87405C20.2836 4.87405 21.0897 5.9051 21.1459 7.21735C21.9333 7.76099 22.5144 8.54834 22.7956 9.42941C23.208 9.09198 23.7329 8.86702 24.3141 8.86702H25.4951C26.1512 8.86702 26.6761 9.41067 26.6761 10.0668V12.3913C26.6761 13.0475 26.1512 13.5911 25.4951 13.5911H24.4078L26.4136 17.3966C29.2631 16.9654 31.9813 19.1775 31.9813 22.2332C32.0001 24.9139 29.8067 27.1072 27.1073 27.1072C22.6831 27.1072 20.5835 21.6895 23.7329 18.6901L22.8518 16.9842C22.2145 16.9842 21.5771 16.9842 20.9585 16.9842C21.0897 17.5841 21.2771 18.5401 21.4084 19.6087C21.7083 22.2894 21.5396 25.3638 19.2338 25.5325L12.6726 26.0012C12.6726 26.0012 12.6538 26.0012 12.6351 26.0012C12.0165 26.0012 11.979 25.0639 12.5976 25.0076L19.1588 24.539C21.3521 24.389 20.3586 18.8213 19.9462 16.9842C16.4781 16.9654 12.9163 16.9654 9.46695 17.2091C9.46695 17.2091 9.46695 17.2091 9.44821 17.2091C9.39197 17.2091 9.27949 17.2091 8.88582 17.0967L8.06098 18.5214C8.73585 19.1025 9.242 19.8524 9.52319 20.6772H13.2537V18.4839C13.2537 18.184 13.5162 17.959 13.8161 17.9965L19.3088 18.7463C19.5712 18.7838 19.7587 19.0275 19.7212 19.3087L19.1588 23.3579C19.1213 23.5829 18.9151 23.7704 18.6714 23.7704H17.078H15.5033H13.7599H13.7411H9.52319C8.86707 25.72 7.04868 27.1072 4.89285 27.1072C2.19337 27.1072 0.0187988 24.9139 0.0187988 22.2332C0.0187988 19.3462 2.49332 17.1154 5.30527 17.3591L5.98013 16.2156C5.38025 16.0281 4.70538 15.8032 3.89929 15.5595C3.88054 15.5407 3.84305 15.522 3.80556 15.5032C1.556 14.2097 0.749906 13.3661 1.0311 12.5788C1.29355 11.8477 2.39958 11.604 4.74288 11.754C6.29882 11.8477 7.72354 12.0352 7.87352 12.1289C10.7979 13.8161 13.8536 13.6098 14.5847 13.5349C16.1594 11.8289 18.6152 11.0791 20.921 11.754L21.9708 11.4165C21.9708 11.3603 21.9708 11.2853 21.9708 11.2291C21.9708 11.0791 21.9895 10.9291 22.0083 10.7792ZM16.6468 22.7768L17.0217 20.2648C17.0967 19.6087 18.0903 19.7586 17.9965 20.4148L17.6404 22.7768H18.2402L18.6902 19.6462L14.2473 19.0463V21.1834V22.7768H15.0721L15.447 20.2648C15.522 19.6087 16.5156 19.7586 16.4218 20.4148L16.0657 22.7768H16.6468ZM23.0955 13.2349C22.7581 13.0287 22.4582 12.7288 22.2707 12.3726L21.6521 12.5601L25.4951 19.9086C25.7575 19.7212 26.0762 19.5899 26.3949 19.4962L25.7388 18.2402C25.72 18.2027 25.7013 18.1652 25.6825 18.1465L23.0955 13.2349ZM24.3141 9.86058C23.5642 9.86058 22.9643 10.4792 22.9643 11.2291C22.9643 11.7352 23.2268 12.1664 23.6392 12.4101C23.6767 12.4288 23.7329 12.4476 23.7704 12.4851C23.9391 12.5601 24.1266 12.5975 24.3141 12.5975H25.4951C25.5888 12.5975 25.6825 12.5038 25.6825 12.3913V10.0668C25.6825 9.95431 25.5888 9.86058 25.4951 9.86058H24.3141ZM24.764 20.6585L24.2203 19.6087C22.027 21.9895 23.6392 26.1137 27.1073 26.1137C29.2443 26.1137 31.0065 24.3702 31.0065 22.2332C31.0065 19.9649 29.0569 18.2214 26.9011 18.3339L27.4822 19.4212C28.8694 19.6087 29.938 20.7897 29.938 22.2332C29.938 23.7891 28.682 25.0639 27.1073 25.0639C25.5513 25.0639 24.2766 23.7891 24.2766 22.2332C24.2766 21.652 24.464 21.1084 24.764 20.6585ZM22.3269 15.9906L20.6023 12.6913C18.5964 12.1476 16.5531 12.8225 15.2596 14.2472C15.2408 14.3035 15.1846 14.3597 15.1283 14.3972C14.7347 14.8659 14.4347 15.4095 14.2285 16.0094C16.3844 15.9719 18.5589 15.9719 20.6773 15.9906H22.3269ZM27.1073 20.396C26.095 20.396 25.2701 21.2209 25.2701 22.2332C25.2701 23.2455 26.095 24.0703 27.1073 24.0703C28.1196 24.0703 28.9444 23.2455 28.9444 22.2332C28.9444 21.2209 28.1196 20.396 27.1073 20.396ZM8.77334 22.0082C8.75459 21.6708 8.67961 21.4458 8.66086 21.2396C8.49214 20.5647 8.13596 19.9086 7.55483 19.3837L6.99244 20.3398C7.44235 20.8459 7.72354 21.5021 7.72354 22.2332C7.72354 23.7891 6.44879 25.0639 4.89285 25.0639C3.3369 25.0639 2.06215 23.7891 2.06215 22.2332C2.06215 20.9584 2.90574 19.8899 4.04926 19.5337L4.74288 18.3339C2.68078 18.4277 0.993609 20.1148 0.993609 22.2332C0.993609 24.3702 2.75576 26.1137 4.89285 26.1137C7.36736 26.1137 8.86707 24.0516 8.77334 22.0082ZM9.74815 22.7768H13.2537V21.6895H9.74815C9.7669 21.8582 9.78564 22.0457 9.78564 22.2332C9.78564 22.4206 9.7669 22.6081 9.74815 22.7768ZM6.20509 19.7212L7.89226 16.8155C7.62981 16.7217 7.31113 16.628 6.9362 16.5155L5.24903 19.4212C5.60521 19.4775 5.9239 19.5712 6.20509 19.7212ZM8.75459 16.0281C8.75459 16.0281 8.77334 16.0281 8.79209 16.0469C9.11077 16.1406 9.35448 16.1968 9.44821 16.2156C10.6855 16.1406 11.9227 16.0844 13.1787 16.0469C13.3287 15.522 13.5349 15.0346 13.7974 14.5847C12.4101 14.6222 9.91687 14.4347 7.4611 13.0475C7.14241 12.9912 6.03637 12.8412 4.8741 12.7663C2.75576 12.6163 2.13714 12.8412 1.98716 12.9162C2.06215 13.0662 2.45582 13.5911 4.25547 14.6222C5.00533 14.8659 5.94264 15.1658 6.82372 15.447H6.86121C7.57357 15.6719 8.24844 15.8782 8.75459 16.0281ZM4.89285 20.396C3.88054 20.396 3.05571 21.2209 3.05571 22.2332C3.05571 23.2455 3.88054 24.0703 4.89285 24.0703C5.90515 24.0703 6.72999 23.2455 6.72999 22.2332C6.72999 21.2209 5.90515 20.396 4.89285 20.396ZM19.2713 5.86761C18.8401 5.86761 18.3715 6.48624 18.3715 7.36732C18.3715 8.26714 18.8401 8.88577 19.2713 8.88577C19.6837 8.88577 20.1524 8.26714 20.1524 7.36732C20.1524 6.48624 19.6837 5.86761 19.2713 5.86761Z" fill="#0080FC"/>
<path d="M39.44 21V9.56H41.376L44.912 18.472L48.336 9.56H50.256V21H48.864V11.368L45.072 21H44.64L40.72 11.368V21H39.44ZM56.8351 20.04C58.5151 20.04 59.5711 18.776 59.5711 16.888V16.776C59.5711 14.84 58.4991 13.592 56.8351 13.592C55.1551 13.592 54.0991 14.84 54.0991 16.76V16.888C54.0991 18.792 55.1391 20.04 56.8351 20.04ZM56.8191 21.144C54.4351 21.144 52.7231 19.336 52.7231 16.888V16.76C52.7231 14.248 54.4671 12.488 56.8351 12.488C59.2031 12.488 60.9471 14.232 60.9471 16.744V16.872C60.9471 19.4 59.2031 21.144 56.8191 21.144ZM65.8474 21.112C64.3274 21.112 63.5914 20.216 63.5914 18.904V13.752H62.3914V12.632H63.5914V10.728H64.9194V12.632H66.8714V13.752H64.9194V18.776C64.9194 19.592 65.2874 19.992 65.9594 19.992C66.3754 19.992 66.6954 19.928 66.9834 19.816V20.936C66.7114 21.032 66.3914 21.112 65.8474 21.112ZM72.7789 20.04C74.4589 20.04 75.5149 18.776 75.5149 16.888V16.776C75.5149 14.84 74.4429 13.592 72.7789 13.592C71.0989 13.592 70.0429 14.84 70.0429 16.76V16.888C70.0429 18.792 71.0829 20.04 72.7789 20.04ZM72.7629 21.144C70.3789 21.144 68.6669 19.336 68.6669 16.888V16.76C68.6669 14.248 70.4109 12.488 72.7789 12.488C75.1469 12.488 76.8909 14.232 76.8909 16.744V16.872C76.8909 19.4 75.1469 21.144 72.7629 21.144ZM79.2471 21V12.632H80.5751V14.136C81.1031 13.192 81.8231 12.536 83.3271 12.488V13.736C81.6471 13.816 80.5751 14.344 80.5751 16.408V21H79.2471ZM90.1931 21V9.56H93.6331C95.7611 9.56 97.3131 10.264 97.3131 12.52V12.584C97.3131 13.624 96.8971 14.552 95.5851 15C97.2491 15.4 97.8731 16.248 97.8731 17.736V17.8C97.8731 19.96 96.4011 21 94.1131 21H90.1931ZM91.5531 19.912H94.0811C95.7451 19.912 96.5131 19.176 96.5131 17.784V17.72C96.5131 16.312 95.7291 15.64 93.8891 15.64H91.5531V19.912ZM91.5531 14.552H93.6331C95.3131 14.552 95.9531 13.944 95.9531 12.536V12.472C95.9531 11.176 95.2011 10.648 93.6011 10.648H91.5531V14.552ZM100.382 21V12.632H101.71V21H100.382ZM101.022 10.888C100.542 10.888 100.142 10.488 100.142 10.008C100.142 9.528 100.542 9.128 101.022 9.128C101.502 9.128 101.902 9.528 101.902 10.008C101.902 10.488 101.502 10.888 101.022 10.888ZM104.728 21V8.632H106.056V16.488L109.528 12.632H111.08L107.496 16.52L111.384 21H109.768L106.056 16.664V21H104.728ZM116.39 21.144C114.022 21.144 112.342 19.48 112.342 16.904V16.776C112.342 14.248 113.958 12.488 116.262 12.488C118.198 12.488 120.022 13.656 120.022 16.648V17.08H113.718C113.782 18.984 114.694 20.04 116.406 20.04C117.702 20.04 118.454 19.56 118.63 18.584H119.958C119.67 20.264 118.278 21.144 116.39 21.144ZM113.766 16.008H118.662C118.534 14.28 117.638 13.592 116.262 13.592C114.902 13.592 113.99 14.52 113.766 16.008Z" fill="#475467"/>
</svg>
