<svg width="98" height="32" viewBox="0 0 98 32" fill="none" xmlns="http://www.w3.org/2000/svg">
<g clip-path="url(#clip0_1345_9295)">
<path d="M0.55995 23.315H21.59C21.86 23.315 22.075 23.1 22.075 22.83C22.075 22.56 21.86 22.345 21.59 22.345H0.999949C0.909948 20.98 0.89995 16.615 4.02495 14.225C4.23995 14.065 4.27995 13.76 4.11495 13.545C3.95495 13.33 3.64995 13.29 3.43495 13.455C-0.73505 16.64 0.0399494 22.64 0.0749493 22.895C0.109949 23.135 0.314949 23.315 0.55995 23.315Z" fill="#0080FC"/>
<path d="M3.29501 14.335H14.09C14.665 14.335 15.135 13.865 15.135 13.29V11.94C15.135 11.365 14.665 10.895 14.09 10.895H3.29501C2.72001 10.895 2.25001 11.365 2.25001 11.94V13.29C2.25001 13.87 2.72001 14.335 3.29501 14.335ZM14.09 11.87C14.13 11.87 14.165 11.905 14.165 11.945V13.295C14.165 13.335 14.13 13.37 14.09 13.37H3.29501C3.25501 13.37 3.22001 13.335 3.22001 13.295V11.945C3.22001 11.905 3.25501 11.87 3.29501 11.87H14.09Z" fill="#0080FC"/>
<path d="M26.0799 16.595C26.0999 16.595 26.1149 16.595 26.1349 16.59C26.3999 16.56 26.5899 16.32 26.5599 16.055C26.2349 13.23 25.3699 10.215 24.0549 7.34C23.9449 7.095 23.6549 6.99 23.4149 7.1C23.1699 7.21 23.0649 7.5 23.1749 7.74C24.4499 10.525 25.2849 13.435 25.5999 16.16C25.6299 16.415 25.8399 16.595 26.0799 16.595Z" fill="#0080FC"/>
<path d="M16.68 20.075C17.32 20.075 17.965 19.885 18.56 19.51C20.23 18.46 22.865 15.48 21.755 7.31001C21.72 7.04501 21.475 6.86001 21.21 6.89501C20.945 6.93001 20.76 7.17501 20.795 7.44001C21.87 15.36 19.23 17.945 18.045 18.69C17.275 19.175 16.44 19.24 15.69 18.875C14.81 18.445 14.195 17.475 14.085 16.345C14.005 15.525 14.17 14.61 14.49 14.12C14.635 13.895 14.57 13.595 14.345 13.45C14.12 13.305 13.82 13.37 13.675 13.595C13.14 14.42 13.04 15.645 13.12 16.445C13.265 17.905 14.085 19.17 15.265 19.75C15.715 19.965 16.195 20.075 16.68 20.075Z" fill="#0080FC"/>
<path d="M27.055 27.62C29.695 27.62 31.845 25.47 31.845 22.83C31.845 21.725 31.46 20.65 30.765 19.8C30.595 19.595 30.29 19.565 30.085 19.73C29.88 19.9 29.85 20.205 30.015 20.41C30.57 21.09 30.875 21.945 30.875 22.825C30.875 24.93 29.16 26.645 27.055 26.645C24.95 26.645 23.235 24.93 23.235 22.825C23.235 22.715 23.24 22.615 23.25 22.505C23.275 22.24 23.075 22 22.81 21.98C22.535 21.96 22.31 22.155 22.285 22.42C22.275 22.56 22.265 22.69 22.265 22.825C22.26 25.47 24.41 27.62 27.055 27.62Z" fill="#0080FC"/>
<path d="M27.055 25.265C28.4 25.265 29.49 24.17 29.49 22.83C29.49 21.755 28.8 20.82 27.77 20.505C27.515 20.425 27.245 20.57 27.165 20.825C27.085 21.08 27.23 21.35 27.485 21.43C28.105 21.62 28.52 22.185 28.52 22.83C28.52 23.64 27.86 24.3 27.05 24.3C26.24 24.3 25.58 23.64 25.58 22.83C25.58 22.495 25.695 22.175 25.9 21.92C26.07 21.71 26.04 21.405 25.83 21.24C25.62 21.07 25.315 21.1 25.15 21.31C24.805 21.735 24.61 22.275 24.61 22.83C24.615 24.175 25.71 25.265 27.055 25.265Z" fill="#0080FC"/>
<path d="M7.37504 27.62C10.015 27.62 12.165 25.47 12.165 22.83C12.165 22.56 11.95 22.345 11.68 22.345C11.41 22.345 11.195 22.56 11.195 22.83C11.195 24.935 9.48004 26.65 7.37504 26.65C5.27004 26.65 3.55504 24.935 3.55504 22.83C3.55504 22.56 3.34004 22.345 3.07004 22.345C2.80004 22.345 2.58504 22.56 2.58504 22.83C2.58504 25.47 4.73504 27.62 7.37504 27.62Z" fill="#0080FC"/>
<path d="M7.37481 25.265C8.71982 25.265 9.80981 24.17 9.80981 22.83C9.80981 22.56 9.59482 22.345 9.32482 22.345C9.05482 22.345 8.83982 22.56 8.83982 22.83C8.83982 23.64 8.17982 24.3 7.36982 24.3C6.55982 24.3 5.89981 23.64 5.89981 22.83C5.89981 22.56 5.68482 22.345 5.41482 22.345C5.14482 22.345 4.92982 22.56 4.92982 22.83C4.93982 24.175 6.02981 25.265 7.37481 25.265Z" fill="#0080FC"/>
<path d="M24.7349 8.525H26.0799C26.3499 8.525 26.5649 8.31 26.5649 8.04V4.865C26.5649 4.595 26.3499 4.38 26.0799 4.38H24.7349C23.6399 4.38 22.7449 5.275 22.7449 6.37V6.535C22.7449 7.63 23.6349 8.525 24.7349 8.525ZM25.5949 7.555H24.7299C24.1649 7.555 23.7099 7.095 23.7099 6.535V6.37C23.7099 5.805 24.1699 5.35 24.7299 5.35H25.5949V7.555Z" fill="#0080FC"/>
<path d="M18.6248 7.855H23.2298C23.4998 7.855 23.7148 7.64 23.7148 7.37V5.53C23.7148 5.26 23.4998 5.045 23.2298 5.045H18.6248C18.3548 5.045 18.1398 5.26 18.1398 5.53V7.37C18.1398 7.64 18.3548 7.855 18.6248 7.855ZM22.7448 6.89H19.1098V6.02H22.7448V6.89Z" fill="#0080FC"/>
<path d="M21.5899 23.315C21.6399 23.315 21.6849 23.31 21.7349 23.295L31.6599 20.225C31.9149 20.145 32.0599 19.875 31.9799 19.62C31.5299 18.17 30.5449 16.985 29.2049 16.275C27.8649 15.565 26.3249 15.425 24.8799 15.87C21.8899 16.795 20.2099 19.98 21.1349 22.975C21.1749 23.1 21.2599 23.2 21.3699 23.26C21.4349 23.295 21.5149 23.315 21.5899 23.315ZM30.8849 19.45L21.9349 22.22C21.4699 19.885 22.8399 17.52 25.1599 16.8C26.3599 16.43 27.6349 16.545 28.7499 17.135C29.7199 17.64 30.4649 18.455 30.8849 19.45Z" fill="#0080FC"/>
<path d="M13.325 23.315C13.36 23.315 13.395 23.31 13.43 23.305C13.69 23.245 13.855 22.99 13.8 22.725C13.02 19.205 11.3 17.805 9.98998 17.25C8.17998 16.485 5.86998 16.78 3.81498 18.045C1.16998 19.67 0.144979 22.545 0.0999784 22.67C0.00997829 22.925 0.144978 23.2 0.399978 23.285C0.649978 23.375 0.929978 23.24 1.01998 22.99C1.02998 22.965 1.98498 20.315 4.32498 18.87C6.11498 17.77 8.08998 17.495 9.61498 18.14C11.21 18.815 12.3 20.43 12.855 22.93C12.9 23.16 13.1 23.315 13.325 23.315Z" fill="#0080FC"/>
</g>
<path d="M43.136 21.144C40.08 21.144 38.976 19.464 38.768 17.512H40.112C40.288 18.872 40.832 20.024 43.136 20.024C44.608 20.024 45.744 19.16 45.744 17.864C45.744 16.568 45.152 16.024 42.976 15.672C40.576 15.304 39.152 14.552 39.152 12.52C39.152 10.76 40.672 9.416 42.832 9.416C45.12 9.416 46.544 10.536 46.768 12.568H45.52C45.248 11.128 44.416 10.536 42.832 10.536C41.264 10.536 40.448 11.32 40.448 12.392C40.448 13.512 40.864 14.088 43.2 14.44C45.744 14.84 47.088 15.608 47.088 17.768C47.088 19.688 45.408 21.144 43.136 21.144ZM52.8473 21.144C50.5113 21.144 48.7513 19.496 48.7513 16.904V16.776C48.7513 14.216 50.5753 12.488 52.8153 12.488C54.5593 12.488 56.1913 13.288 56.4473 15.416H55.1353C54.9273 14.088 53.9673 13.592 52.8153 13.592C51.2953 13.592 50.1273 14.808 50.1273 16.776V16.904C50.1273 18.952 51.2473 20.04 52.8633 20.04C54.0473 20.04 55.1193 19.352 55.2633 17.992H56.4953C56.3193 19.8 54.8633 21.144 52.8473 21.144ZM61.9883 20.04C63.6683 20.04 64.7243 18.776 64.7243 16.888V16.776C64.7243 14.84 63.6523 13.592 61.9883 13.592C60.3083 13.592 59.2523 14.84 59.2523 16.76V16.888C59.2523 18.792 60.2923 20.04 61.9883 20.04ZM61.9723 21.144C59.5883 21.144 57.8763 19.336 57.8763 16.888V16.76C57.8763 14.248 59.6203 12.488 61.9883 12.488C64.3563 12.488 66.1003 14.232 66.1003 16.744V16.872C66.1003 19.4 64.3563 21.144 61.9723 21.144ZM71.6445 20.04C73.3245 20.04 74.3805 18.776 74.3805 16.888V16.776C74.3805 14.84 73.3085 13.592 71.6445 13.592C69.9645 13.592 68.9085 14.84 68.9085 16.76V16.888C68.9085 18.792 69.9485 20.04 71.6445 20.04ZM71.6285 21.144C69.2445 21.144 67.5325 19.336 67.5325 16.888V16.76C67.5325 14.248 69.2765 12.488 71.6445 12.488C74.0125 12.488 75.7565 14.232 75.7565 16.744V16.872C75.7565 19.4 74.0125 21.144 71.6285 21.144ZM80.3568 21.112C78.8368 21.112 78.1008 20.216 78.1008 18.904V13.752H76.9008V12.632H78.1008V10.728H79.4288V12.632H81.3808V13.752H79.4288V18.776C79.4288 19.592 79.7968 19.992 80.4688 19.992C80.8848 19.992 81.2048 19.928 81.4928 19.816V20.936C81.2208 21.032 80.9008 21.112 80.3568 21.112ZM86.9243 21.144C84.5563 21.144 82.8763 19.48 82.8763 16.904V16.776C82.8763 14.248 84.4923 12.488 86.7963 12.488C88.7323 12.488 90.5563 13.656 90.5563 16.648V17.08H84.2523C84.3163 18.984 85.2283 20.04 86.9403 20.04C88.2363 20.04 88.9883 19.56 89.1643 18.584H90.4923C90.2043 20.264 88.8123 21.144 86.9243 21.144ZM84.3003 16.008H89.1963C89.0683 14.28 88.1723 13.592 86.7963 13.592C85.4363 13.592 84.5243 14.52 84.3003 16.008ZM92.594 21V12.632H93.922V14.136C94.45 13.192 95.17 12.536 96.674 12.488V13.736C94.994 13.816 93.922 14.344 93.922 16.408V21H92.594Z" fill="#475467"/>
<defs>
<clipPath id="clip0_1345_9295">
<rect width="32" height="32" fill="white" transform="matrix(-1 0 0 1 32 0)"/>
</clipPath>
</defs>
</svg>
