<svg width="20" height="21" viewBox="0 0 20 21" fill="none" xmlns="http://www.w3.org/2000/svg">
<path d="M17.5001 6.10827C17.4834 6.10827 17.4584 6.10827 17.4334 6.10827C13.0251 5.66661 8.62505 5.49994 4.26672 5.94161L2.56672 6.10827C2.21672 6.14161 1.90839 5.89161 1.87505 5.54161C1.84172 5.19161 2.09172 4.89161 2.43339 4.85827L4.13339 4.69161C8.56672 4.24161 13.0584 4.41661 17.5584 4.85827C17.9001 4.89161 18.1501 5.19994 18.1167 5.54161C18.0917 5.86661 17.8167 6.10827 17.5001 6.10827Z" fill="#F97066"/>
<path d="M7.08338 5.26663C7.05005 5.26663 7.01672 5.26663 6.97505 5.25829C6.64172 5.19996 6.40838 4.87496 6.46672 4.54163L6.65005 3.44996C6.78338 2.64996 6.96671 1.54163 8.90838 1.54163H11.0917C13.0417 1.54163 13.225 2.69163 13.35 3.45829L13.5334 4.54163C13.5917 4.88329 13.3584 5.20829 13.025 5.25829C12.6834 5.31663 12.3584 5.08329 12.3084 4.74996L12.125 3.66663C12.0084 2.94163 11.9834 2.79996 11.1 2.79996H8.91672C8.03338 2.79996 8.01672 2.91663 7.89172 3.65829L7.70005 4.74163C7.65005 5.04996 7.38338 5.26663 7.08338 5.26663Z" fill="#F97066"/>
<path d="M12.675 19.4583H7.325C4.41666 19.4583 4.3 17.8499 4.20833 16.5499L3.66666 8.15827C3.64166 7.81661 3.90833 7.51661 4.25 7.49161C4.6 7.47494 4.89166 7.73327 4.91666 8.07494L5.45833 16.4666C5.55 17.7333 5.58333 18.2083 7.325 18.2083H12.675C14.425 18.2083 14.4583 17.7333 14.5417 16.4666L15.0833 8.07494C15.1083 7.73327 15.4083 7.47494 15.75 7.49161C16.0917 7.51661 16.3583 7.80827 16.3333 8.15827L15.7917 16.5499C15.7 17.8499 15.5833 19.4583 12.675 19.4583Z" fill="#F97066"/>
<path d="M11.3833 14.875H8.60828C8.26661 14.875 7.98328 14.5917 7.98328 14.25C7.98328 13.9083 8.26661 13.625 8.60828 13.625H11.3833C11.7249 13.625 12.0083 13.9083 12.0083 14.25C12.0083 14.5917 11.7249 14.875 11.3833 14.875Z" fill="#F97066"/>
<path d="M12.0833 11.5416H7.91663C7.57496 11.5416 7.29163 10.9166 7.29163 10.9166C7.29163 10.575 7.57496 10.2916 7.91663 10.2916H12.0833C12.425 10.2916 12.7083 10.575 12.7083 10.9166C12.7083 11.2583 12.425 11.5416 12.0833 11.5416Z" fill="#F97066"/>
</svg>
